<?xml version="1.0" encoding="UTF-8" standalone="no"?><!DOCTYPE svg PUBLIC "-//W3C//DTD SVG 1.1//EN" "http://www.w3.org/Graphics/SVG/1.1/DTD/svg11.dtd"><svg width="100%" height="100%" viewBox="0 0 1004 837" version="1.1" xmlns="http://www.w3.org/2000/svg" xmlns:xlink="http://www.w3.org/1999/xlink" xml:space="preserve" xmlns:serif="http://www.serif.com/" style="fill-rule:evenodd;clip-rule:evenodd;stroke-linejoin:round;stroke-miterlimit:1.41421;"><ellipse cx="713.5" cy="826.66" rx="102.56" ry="10.11" style="fill:#ffb320;fill-opacity:0.1;"/><path d="M439.53,12.24c45.17,-16.79 100.16,-2.35 147.12,18.71c147.49,66.16 254.94,191.75 340.31,319.7c30.91,46.33 60.27,94.7 71.89,146.42c23.66,105.27 -38.05,214.25 -143,252.44c-35.69,13 -74.9,18.33 -114.17,21.3c-69.83,5.29 -142.13,3.19 -211.4,-16.4c-49.4,-14 -96.13,-36.52 -140.95,-61.4c-125.17,-69.52 -239.48,-159.8 -321.79,-270.08c-36.1,-48.37 -66.64,-102.9 -67.52,-158.71c-0.88,-55.81 35.49,-111.89 95.33,-121.38c24.74,-3.92 50.91,0.16 76.44,4.36c37.59,6.19 75.69,12.7 112.85,10c38.39,-2.81 88.32,-17.81 95.32,-54.46c7.41,-39.35 14.46,-73.73 59.57,-90.5Z" style="fill:#ffb320;fill-opacity:0.1;fill-rule:nonzero;"/><path d="M244.02,768.81c0,0 48.26,-2.91 42.57,30.91c0,0 1.13,6 -4.29,8.69c0,0 -0.08,-2.51 -4.95,-1.66c-1.73,0.297 -3.489,0.385 -5.24,0.26c-2.367,-0.164 -4.618,-1.094 -6.41,-2.65c-1.792,-1.556 -13.57,-5.6 -18.84,-27.78c0,0 -3.91,-4.83 -3.75,-6.08l8.14,3.48c0,0 -2.78,5.88 -0.59,10.76c0,0 0.26,-10.54 1.83,-10.3c0.31,0.05 4.23,2 4.23,2c0,0 -4.79,10.23 -1.18,17.67c0,0 -1.37,-12.61 2.67,-16.93l5.74,3.35c0,0 -5.6,10.57 -1.8,19.19c0,0 -1,-13.23 3,-18.38l5.2,4c0,0 -5.26,10.42 -2.05,17.58c0,0 0.41,-15.41 3.17,-16.57c0,0 4.55,4 5.24,5.66c0,0 -3.6,7.56 -1.37,11.55c0,0 1.37,-10.26 2.5,-10.31c0,0 4.52,6.8 5,11.46c0,0 -0.2,-6.93 -3.91,-12.11c0,0 4.38,0.75 6.94,3.59c0,0 -0.71,-4.81 -8.05,-5.23c0,0 -3.74,-5.15 -4.75,-5.47c0,0 7.31,-0.61 11.74,1.36c0,0 -3.9,-4.54 -13.08,-2.48l-5.13,-4.18c0,0 9.63,-1.32 13.7,0.14c0,0 -4.69,-4 -15.08,-1.09l-5.58,-3.34c0,0 8.2,-1.77 13.09,-1.13c0,0 -5.16,-2.78 -14.73,0.23l-4,-1.79c0,0 6,-1.18 7.77,-1.37c1.77,-0.19 1.85,-0.67 1.85,-0.67c-3.806,-0.638 -7.716,-0.205 -11.29,1.25c-3.574,1.455 -8.46,-3.03 -8.31,-3.61Z" style="fill:#ffb320;fill-rule:nonzero;"/><ellipse cx="277.26" cy="811.36" rx="34.16" ry="5.77" style="fill:#ffb320;fill-opacity:0.1;"/><path d="M179.37,746.06c0,0 27.21,-1.64 24,17.43c0.347,1.978 -0.631,3.967 -2.41,4.9c-1.779,0.933 -0.05,-1.41 -2.79,-0.93c-0.974,0.167 -1.965,0.214 -2.95,0.14c-1.338,-0.082 -2.612,-0.607 -3.62,-1.49c-1.008,-0.883 -7.64,-3.17 -10.64,-15.67c0,0 -2.2,-2.73 -2.12,-3.43l4.6,2c0,0 -1.57,3.32 -0.34,6.07c0,0 0.15,-5.95 1,-5.81c0.18,0 2.39,1.15 2.39,1.15c0,0 -2.7,5.77 -0.66,10c0,0 -0.78,-7.11 1.5,-9.55l3.23,1.89c0,0 -3.15,6 -1,10.82c0,0 -0.55,-7.46 1.69,-10.36l2.93,2.28c0,0 -3,5.87 -1.15,9.91c0,0 0.23,-8.69 1.79,-9.34c0,0 2.56,2.26 2.95,3.19c0,0 -2,4.26 -0.77,6.51c0,0 0.77,-5.78 1.41,-5.81c0,0 2.55,3.83 2.81,6.46c-0.128,-2.429 -0.886,-4.783 -2.2,-6.83c1.471,0.269 2.831,0.965 3.91,2c1.079,1.035 -0.39,-2.71 -4.54,-2.95c0,0 -2.11,-2.91 -2.67,-3.08c0,0 4.12,-0.35 6.62,0.76c0,0 -2.2,-2.56 -7.38,-1.4l-2.89,-2.36c0,0 5.43,-0.74 7.73,0.08c0,0 -2.65,-2.26 -8.51,-0.61l-3.14,-1.89c2.419,-0.528 4.896,-0.74 7.37,-0.63c2.474,0.11 -2.9,-1.57 -8.3,0.13l-2.25,-1c0,0 3.39,-0.67 4.38,-0.77c0.99,-0.1 1.05,-0.38 1.05,-0.38c-2.148,-0.356 -4.353,-0.11 -6.37,0.71c-2.017,0.82 -4.74,-1.81 -4.66,-2.14Z" style="fill:#ffb320;fill-rule:nonzero;"/><ellipse cx="198.11" cy="770.04" rx="19.26" ry="3.26" style="fill:#ffb320;fill-opacity:0.1;"/><path d="M848.78,764.39c0,0 32.85,-2 29,21c0.403,2.39 -0.778,4.785 -2.92,5.92c-2.142,1.135 -0.06,-1.71 -3.37,-1.13c-1.179,0.201 -2.378,0.258 -3.57,0.17c-1.611,-0.105 -3.144,-0.737 -4.36,-1.8c-1.216,-1.063 -9.24,-3.81 -12.83,-18.91c0,0 -2.66,-3.29 -2.55,-4.13l5.54,2.36c0,0 -1.89,4 -0.4,7.33c0,0 0.18,-7.18 1.24,-7c0.22,0 2.88,1.38 2.88,1.38c0,0 -3.26,7 -0.8,12c0,0 -0.93,-8.58 1.82,-11.52l3.9,2.27c0,0 -3.81,7.2 -1.22,13.07c0,0 -0.67,-9 2,-12.51l3.54,2.76c0,0 -3.58,7.09 -1.4,12c0,0 0.29,-10.48 2.17,-11.28c0,0 3.09,2.73 3.56,3.85c0,0 -2.45,5.15 -0.93,7.87c0,0 0.93,-7 1.7,-7c0,0 3.08,4.63 3.4,7.8c-0.149,-2.931 -1.063,-5.772 -2.65,-8.24c1.777,0.336 3.418,1.185 4.72,2.44c1.302,1.255 -0.48,-3.27 -5.49,-3.56c0,0 -2.54,-3.51 -3.22,-3.72c0,0 5,-0.42 8,0.92c0,0 -2.66,-3.08 -8.91,-1.68l-3.49,-2.85c0,0 6.55,-0.9 9.33,0.09c0,0 -3.2,-2.73 -10.27,-0.74l-3.8,-2.27c0,0 5.58,-1.2 8.91,-0.77c0,0 -3.51,-1.89 -10,0.16l-2.72,-1.22c0,0 4.09,-0.81 5.29,-0.93c1.2,-0.12 1.26,-0.46 1.26,-0.46c-2.589,-0.432 -5.248,-0.138 -7.68,0.85c-2.432,0.988 -5.78,-2.14 -5.68,-2.52Z" style="fill:#ffb320;fill-rule:nonzero;"/><ellipse cx="871.4" cy="793.36" rx="23.25" ry="3.93" style="fill:#ffb320;fill-opacity:0.1;"/><path d="M816.05,521.62c-0.63,-3.521 -0.994,-7.084 -1.09,-10.66c0,-4.29 -5.83,-8.09 -5.83,-8.09c0,0 -3.6,-8.33 -6,-9.56c-2.4,-1.23 -9.81,-12.13 -9.81,-12.13c-0.085,-2.15 -0.868,-4.214 -2.23,-5.88c-2.22,-2.918 -4.248,-5.978 -6.07,-9.16c-1,-1.22 -0.5,-2.08 -2,-9.19c-0.08,-0.37 -0.17,-0.73 -0.28,-1.07c0,-0.16 -0.1,-0.3 -0.16,-0.46c3.243,-3.253 4.345,-8.094 2.83,-12.43c-0.269,-0.846 -0.76,-1.606 -1.42,-2.2c-1.69,-1.38 -4.39,-0.81 -6.13,-2.12l1.85,-8.18c0.44,-2 0.67,-4.53 -1.08,-5.61c-0.657,-0.312 -1.348,-0.543 -2.06,-0.69c-3,-1 -4.74,-4.17 -5.52,-7.22c-0.75,-2.938 -0.953,-5.989 -0.6,-9c0.34,-2.9 1.19,-5.72 1.5,-8.63c0.564,-5.381 -0.732,-10.797 -3.67,-15.34c-1.143,-1.961 -2.827,-3.551 -4.85,-4.58c-1.85,-0.83 -4,-1 -5.73,-2c-3.72,-2.37 -3.53,-8 -6.5,-11.23c-2.97,-3.23 -8.23,-3.22 -12.56,-2.11c-4.33,1.11 -8.64,3 -13.08,2.53c-2.86,-0.32 -5.54,-1.62 -8.41,-1.92c-0.821,-0.078 -1.649,-0.041 -2.46,0.11l0,-0.09c-2.12,0.38 -4.07,1.56 -4.57,3.57c-0.112,0.478 -0.159,0.969 -0.14,1.46c0,1.17 0.28,2.39 0.3,3.51c0.075,0.899 -0.218,1.79 -0.81,2.47c-0.57,0.61 -1.41,0.93 -2,1.56c-0.486,0.487 -0.75,1.153 -0.73,1.84c0,1.78 2.22,3.35 3.71,4.07l0.06,0c-0.4,0.4 -0.8,0.82 -1.17,1.25c-4.27,4.823 -6.627,11.048 -6.62,17.49c0.074,10.616 6.472,20.221 16.24,24.38l-0.21,0.65c-0.421,1.286 -0.912,2.548 -1.47,3.78c-2.093,-0.704 -4.393,-0.447 -6.28,0.7c-2.86,2 -8.45,1.84 -9.94,1.47c-1.49,-0.37 -17,-2.33 -18.25,-1.84c-1.25,0.49 -3.72,-1.71 -5.33,1.23c-1.61,2.94 -2.36,4.53 -4,5.27c-1.64,0.74 -4.47,3.06 -4.09,3.55c0.38,0.49 -4.1,3.43 -4.1,3.43c0,0 -3.85,4 -6.08,4.53c-2.23,0.53 -6.95,3.56 -6.95,3.56l-5.47,4.28c0,0 -4.09,0.62 -2.85,-2.2c1.24,-2.82 -2.24,-6.37 -2.24,-6.37c0,0 -6.95,-14.09 -6.95,-17c0,-2.91 -5.71,-15.32 -5.71,-15.32l-0.7,-0.07l-0.32,-0.91c-1.05,-2.95 -2.41,-6.57 -3.45,-8.69c-2,-4.05 -3.23,-4.47 -3.23,-4.47c0,0 -24.08,-18.08 -39.72,-12.57c-15.64,5.51 28.55,21.93 32.52,23.65c1.39,0.6 2.39,2.54 3.09,4.81c-3.522,1.699 -6.489,4.367 -8.55,7.69c-2.061,3.323 9.56,21.19 9.81,26.46c0.25,5.27 6.58,20 6.58,20c0,0 2.36,10.91 15.14,10.29c0,0 17.63,3.24 21.48,0c3.85,-3.24 7.32,-5.78 9.19,-6.15c1.375,-0.452 2.584,-1.305 3.47,-2.45c0.886,-1.145 -5.83,36.75 -8.69,39.94c-2.86,3.19 -28.13,44.45 -19.06,51.83c7.183,5.562 14.775,10.576 22.71,15c0.77,0.38 3.08,-3.47 6.38,-6.2c0,0.69 0,1.39 0,2.13c0.06,14.68 2,37 4.68,42c4,7.35 2.36,21.56 2.36,21.56c2.103,0.99 4.387,1.538 6.71,1.61c0.12,0.48 0.26,1 0.39,1.5c2.19,8.27 5.74,21.06 7.55,24.46c2.73,5.15 4.71,21.45 4.71,21.45c0,0 1.62,16 1,18.25c-0.24,0.85 0.81,7.51 2.46,16c-1,11.49 -2.9,33.64 -3.22,41.65l0,0.58c0.005,0.09 0.005,0.18 0,0.27c0,0.18 0,0.34 0,0.49c-0.031,0.504 -0.011,1.01 0.06,1.51c0.124,0.763 0.066,1.544 -0.17,2.28c-0.708,2.214 -1.608,4.363 -2.69,6.42c-0.456,1.011 -0.857,2.046 -1.2,3.1c-1,0.44 -2.22,1.51 -2.9,4.12c-1.24,4.78 -3.1,18 -3.1,18c0,0 -0.75,8.09 -2.23,9.93c-1.48,1.84 -3,13.35 7.57,14.82c10.57,1.47 15.14,-5.6 15.14,-5.6l-0.37,-32.08l0,-0.06c0.214,-0.27 0.398,-0.561 0.55,-0.87l0,-0.08c0.07,-0.15 0.15,-0.31 0.22,-0.49l0.09,-0.24l0.16,-0.39c-0.006,-0.046 -0.006,-0.094 0,-0.14c1.026,-3.073 1.334,-6.34 0.9,-9.55l0,-0.16l0,-0.25c0,-0.08 0,-0.17 0,-0.25l0,-0.5c0,-0.06 0,-0.13 0,-0.19c0,-0.213 0.02,-0.433 0.06,-0.66c0.04,-0.227 0,-0.08 0,-0.12l0.06,-0.39l0,-0.17c0,-0.13 0,-0.26 0.08,-0.4c-0.004,-0.033 -0.004,-0.067 0,-0.1c0.1,-0.46 0.22,-1 0.35,-1.44l0,-0.11l0.15,-0.48c0.15,-0.51 0.32,-1 0.5,-1.54l0,-0.1c0,-0.16 0.11,-0.32 0.17,-0.47l0,-0.06c0.18,-0.49 0.37,-1 0.55,-1.42l0.05,-0.13l0.16,-0.4l0.05,-0.12l0.38,-0.89l2.93,9.05c0,0 1.62,6.74 0.75,8.33c-0.87,1.59 1,8.21 2.23,8.33l-1.15,8.33c-0.622,4.593 -0.992,9.217 -1.11,13.85c-0.08,0.53 -0.16,1 -0.22,1.32c-0.8,4.27 1.12,10.89 1.12,10.89c9.8,11.59 21.48,0.9 21.48,0.9c0,0 1.36,-6.13 0,-7.35c-1.36,-1.22 -0.75,-5.64 -0.75,-5.64c0,0 0.62,-10.91 0.74,-18.87c0.12,-7.96 -6.51,-15 -6.51,-15l-0.37,0.33c-1.21,-3.12 -2.59,-6.76 -2.3,-8.39c0.5,-2.82 -1.37,-32.59 -1.37,-32.59c0.691,-7.981 0.838,-15.999 0.44,-24c0.16,-1.35 0.31,-2.68 0.46,-4c0.75,-6.4 1.36,-11.87 1.6,-14.74l0,-0.34c0.06,-0.77 0.09,-1.32 0.08,-1.58c0,-1 0,-2.14 0.1,-3.39c0.23,-3.44 0.77,-7.27 0.77,-7.27l2.6,-15.81c0,0 2,-7.72 4.85,-12l0.34,-0.54c0.11,-0.19 0.22,-0.4 0.34,-0.62l0.05,-0.09c0.11,-0.21 0.23,-0.43 0.34,-0.66l0.05,-0.09c0.4,-0.79 0.83,-1.7 1.28,-2.7c0,-0.08 0.07,-0.15 0.1,-0.23l0.34,-0.76c0,-0.1 0.08,-0.2 0.13,-0.3c0.05,-0.1 0.21,-0.51 0.32,-0.76c0.049,-0.101 0.093,-0.204 0.13,-0.31c0.13,-0.3 0.27,-0.61 0.4,-0.93l0.19,-0.46c0.09,-0.23 0.19,-0.46 0.29,-0.69l0.24,-0.61c0.07,-0.15 0.13,-0.3 0.19,-0.45l0.27,-0.69c0,-0.1 0.09,-0.21 0.13,-0.31c0.71,-1.77 1.39,-3.52 2,-5.11c0.19,-0.5 0.38,-1 0.55,-1.44c6.36,0.39 10.68,0.74 10.68,0.74c0,0 2,-14.33 1.36,-23.76c-0.42,-6.44 0.78,-14.54 1.57,-19c0.09,-0.49 0.17,-0.93 0.25,-1.33l0.17,0.14c3.11,2.45 5.34,-5.64 5.34,-5.64c0,0 -0.84,-7.55 -2,-16.7l-0.12,-0.91c1.792,0.382 3.605,0.659 5.43,0.83c1.825,0.171 1,-0.09 2.37,-0.26c3.79,2.194 7.79,4.003 11.94,5.4l6.61,-12.2c1.242,-2.529 2.697,-4.948 4.35,-7.23c2,-2.45 9.06,-10.29 8.94,-11.76c-0.12,-1.47 2.36,-9.93 4.84,-13.73c2.48,-3.8 3.47,-11.44 3.35,-12.05Zm-27.56,9.31c-2.61,1.1 -5.09,7.23 -5.21,9.07c-0.12,1.84 -2.86,9.92 -5.71,10.9c-2.63,0.9 -7.65,5.52 -8.45,6.26c-0.82,0.07 -1.75,0.18 -2.72,0.34c-1.09,-7.73 -2.17,-14.13 -2.86,-15.42c-2,-3.68 2.19,-15.44 2.19,-15.44c0,0 0.41,-11.88 3,-14.7c2.59,-2.82 2,-9.93 2,-9.93c0,0 0.62,-2.94 0.87,-4.28c0.25,-1.34 3.69,0 3.72,0c0.03,0 6.7,3.67 7.7,9.18c1,5.51 8.32,15.07 8.32,15.07c0,0 -1.12,3.31 0,5c1.12,1.69 -0.24,2.85 -2.85,3.95Z" style="fill:url(#_Linear1);fill-rule:nonzero;"/><path d="M608.96,426.22c4.159,-6.861 12.062,-10.582 20,-9.42l0,14.31l-8.69,0l-6.8,-1.72l-4.51,-3.17Z" style="fill:#4c4981;fill-rule:nonzero;"/><path d="M608.96,426.22c4.159,-6.861 12.062,-10.582 20,-9.42l0,14.31l-8.69,0l-6.8,-1.72l-4.51,-3.17Z" style="fill-opacity:0.1;fill-rule:nonzero;"/><path d="M629.61,420.59l-10.65,7.46c0,0 -0.09,-1.49 -0.36,-3.53c-0.53,-3.86 -1.72,-9.65 -4.29,-10.77c-3.91,-1.72 -47.44,-18.1 -32,-23.61c15.44,-5.51 39.13,12.55 39.13,12.55c0,0 1.22,0.42 3.17,4.45c1,2.12 2.37,5.73 3.4,8.68c0.95,2.66 1.6,4.77 1.6,4.77Z" style="fill:#ae6e79;fill-rule:nonzero;"/><path d="M714.69,432.08l1.21,-0.57l3.4,3.88l-2.78,5.93l-4.74,-1.9l1.1,-4.74l1.81,-2.6Z" style="fill:#4c4981;fill-rule:nonzero;"/><path d="M698.58,779.39c0,0 -3.06,-0.36 -4.28,4.41c-1.22,4.77 -3.06,18 -3.06,18c0,0 -0.73,8.07 -2.2,9.91c-1.47,1.84 -2.93,13.33 7.46,14.79c10.39,1.46 14.92,-5.59 14.92,-5.59l-0.37,-32.07l-12.47,-9.45Z" style="fill:#444053;fill-rule:nonzero;"/><path d="M734.84,780.83c0,0 6.54,7 6.42,14.94c-0.12,7.94 -0.74,18.83 -0.74,18.83c0,0 -0.6,4.41 0.74,5.63c1.34,1.22 0,7.34 0,7.34c0,0 -11.5,10.67 -21.16,-0.9c0,0 -1.88,-6.61 -1.1,-10.87c0.78,-4.26 2.96,-23.41 2.96,-23.41l12.88,-11.56Z" style="fill:#444053;fill-rule:nonzero;"/><path d="M751.04,634.6c0,0 -6.6,18.46 -9.42,22.74c-2.82,4.28 -4.76,12 -4.76,12l-2.57,15.77c-0.502,3.526 -0.789,7.079 -0.86,10.64c0.12,3.55 -6.36,55.27 -6.36,55.27l-10.27,13.09c0,0 -4.52,9.17 -3.79,13c0.73,3.83 -0.49,9.91 -2,11.74c0,0 -0.24,12 -0.61,14.67c-0.37,2.67 1.35,10.28 0,11.62c-1.35,1.34 -19.32,0.74 -19.81,-1.47c-0.49,-2.21 2.2,-12.84 2.2,-12.84l1.59,-10.27c0,0 3.18,-5.62 2.45,-7.46c-0.73,-1.84 1.34,-6.11 1.46,-6.48c0.12,-0.37 3.43,-6.36 2.82,-8.68c-0.61,-2.32 3.85,-51.66 3.85,-51.66l12.59,-88.41l33.49,6.73Z" style="fill:#ae6e79;fill-rule:nonzero;"/><path d="M751.04,634.6c0,0 -1,2.78 -2.37,6.43c-2.18,5.76 -5.32,13.69 -7.05,16.31c-2.81,4.28 -4.77,12 -4.77,12l-2.57,15.78c-0.497,3.526 -0.781,7.079 -0.85,10.64c0,1.4 -0.94,10.33 -2.14,20.62c-1.85,15.73 -4.22,34.65 -4.22,34.65l-10.27,13.09c0,0 -0.52,1 -1.17,2.58c-1.29,3 -3.11,7.87 -2.62,10.38c0.73,3.79 -0.49,9.9 -2,11.74c0,0 -0.25,12 -0.61,14.67c-0.36,2.67 1.35,10.27 0,11.62c-1.35,1.35 -19.32,0.74 -19.81,-1.46c-0.49,-2.2 2.2,-12.84 2.2,-12.84l1.59,-10.28c0,0 3.18,-5.62 2.44,-7.46c-0.74,-1.84 1.35,-6.11 1.47,-6.48c0.12,-0.37 3.43,-6.36 2.82,-8.68c-0.47,-1.77 2,-30.74 3.15,-44.48c0.39,-4.32 0.64,-7.13 0.64,-7.13l10.83,-76.06l0.88,-6.13l0.88,-6.22l33.55,6.71Z" style="fill-opacity:0.1;fill-rule:nonzero;"/><path d="M740.04,818.51c0.11,1.35 -17.25,3.31 -19.73,1.84c-2.48,-1.47 0,-19.69 0,-19.69l1.13,-8.31c-1.21,-0.13 -3.05,-6.73 -2.2,-8.32c0.85,-1.59 -0.73,-8.31 -0.73,-8.31l-2.88,-9l-1.76,-5.51c-2.86,-6.31 -7,-24.31 -9.57,-37.75c-1.62,-8.44 -2.65,-15.09 -2.42,-15.94c0.61,-2.2 -1,-18.22 -1,-18.22c0,0 -2,-16.27 -4.64,-21.4c-1.79,-3.4 -5.28,-16.17 -7.44,-24.41c-1.1,-4.23 -1.86,-7.27 -1.86,-7.27c0,0 18.48,-1.55 29.69,-2.09c5.15,-0.25 8.77,-0.28 8.35,0.14c-0.42,0.42 -0.53,2.66 -0.51,5.9c0.05,8.39 1.22,23.15 2.46,27.12c1.71,5.5 3.42,22 2.69,23.6c-0.73,1.6 -0.49,12.23 -0.49,12.23c1.26,4.318 1.985,8.775 2.16,13.27c0.391,7.964 0.251,15.945 -0.42,23.89c-0.671,7.945 1.83,29.72 1.34,32.53c-0.49,2.81 3.91,11.62 3.91,13.33c0,1.71 1.22,13.33 1.22,13.33c0,0 2.62,17.7 2.7,19.04Z" style="fill:#ae6e79;fill-rule:nonzero;"/><path d="M749.69,461.31l-2.1,2.27l-1.37,1.48l-8,8.6l-20.67,2.33l-11,-2.94l-2.72,-0.73c0,0 0,-5.52 0.49,-12.14c0.7,-8.49 2.37,-18.8 6.36,-21.61c1.998,-1.564 3.593,-3.584 4.65,-5.89c0.798,-1.59 1.467,-3.242 2,-4.94c0.08,-0.22 0.14,-0.43 0.21,-0.65c0.9,-2.964 1.549,-5.998 1.94,-9.07c0.391,-3.072 2.64,-1.46 6.31,-3.16c9.57,-4.47 26.1,-10.64 20.35,3.16c-0.845,2.021 -1.566,4.091 -2.16,6.2c-0.09,0.31 -0.17,0.62 -0.24,0.92c-1.92,7.68 -0.65,12.34 0.78,14.91c0.242,0.445 0.519,0.87 0.83,1.27c0.391,0.537 0.859,1.012 1.39,1.41l2.38,15.11l0.2,1.25l0.37,2.22Z" style="fill:#ae6e79;fill-rule:nonzero;"/><path d="M746.15,418.76c-1.09,2.62 0.53,-2.14 0,0c-4.36,3.1 -14.63,11.93 -20.4,11.93c-3.9,0 -5.07,-0.71 -8.41,-2.22c1.011,-3.164 1.73,-6.415 2.15,-9.71c0.42,-3.295 34.61,-19.08 26.66,0Z" style="fill-opacity:0.1;fill-rule:nonzero;"/><path d="M754.96,402.69c-0.011,13.571 -10.375,25.081 -23.87,26.51c-0.92,0.09 -1.85,0.15 -2.79,0.15c-14.625,0 -26.66,-12.035 -26.66,-26.66c0,-14.625 12.035,-26.66 26.66,-26.66c14.625,0 26.66,12.035 26.66,26.66Z" style="fill:#ae6e79;fill-rule:nonzero;"/><path d="M758.75,520.87l-3.8,9.91c0,0 -3.09,0.13 -7.91,0.28c-16.27,0.52 -52.12,1.18 -53.72,-3c-0.359,-1.06 -0.548,-2.171 -0.56,-3.29c-0.21,-6.37 2.76,-16.15 2.76,-16.15c0,0 1.71,-19.57 1.71,-20.42c0,-0.85 -1.47,-14.56 -1.47,-14.56l2.94,-11l8.19,-5.75c0,0 3.67,5.63 5.87,6.11c2.2,0.48 5.14,3.19 5.14,3.19c0,0 7.21,4.4 9.54,1.95c2.33,-2.45 20.42,-13.21 20.42,-13.21l9.54,10.52l1.35,55.42Z" style="fill-opacity:0.1;fill-rule:nonzero;"/><path d="M758.75,522.39l-3.8,9.9c0,0 -3.09,0.14 -7.91,0.29l-0.47,0c-2.08,0.07 -4.46,0.14 -7,0.19c-12.93,0.3 -30.74,0.38 -40.05,-1c-3.5,-0.5 -5.79,-1.22 -6.17,-2.2c-0.211,-0.589 -0.358,-1.199 -0.44,-1.82c-0.06,-0.46 -0.1,-1 -0.12,-1.47c-0.21,-6.37 2.76,-16.15 2.76,-16.15c0,0 1.71,-19.57 1.71,-20.42c0,-0.85 -1.47,-14.56 -1.47,-14.56l2.94,-11l5.63,-3.94l2.56,-1.8c0.861,1.289 1.799,2.525 2.81,3.7c0.789,1.059 1.845,1.891 3.06,2.41c2.21,0.49 5.14,3.19 5.14,3.19c0,0 7.21,4.4 9.54,1.95c1.77,-1.87 12.77,-8.6 17.85,-11.67c1.56,-0.95 2.57,-1.54 2.57,-1.54l1.28,1.42l8.26,9.1l1.32,55.42Z" style="fill:#fff;fill-rule:nonzero;"/><path d="M629.61,420.59l-10.65,7.46c0,0 -0.09,-1.49 -0.36,-3.53c5.26,-2.22 8.46,-7.13 9.38,-8.7c0.98,2.66 1.63,4.77 1.63,4.77Z" style="fill-opacity:0.1;fill-rule:nonzero;"/><path d="M667.03,445.91l-2.32,-0.62c0,0 -3.8,4 -6,4.53c-2.2,0.53 -6.84,3.54 -6.84,3.54l-5.39,4.28c0,0 -4,0.62 -2.81,-2.2c1.19,-2.82 -2.2,-6.36 -2.2,-6.36c0,0 -6.85,-14.06 -6.85,-17c0,-2.94 -5.66,-15.28 -5.66,-15.28c0,0 -7.1,13.82 -20.06,9.42c0,0 9.42,21.15 9.66,26.41c0.24,5.26 6.48,19.93 6.48,19.93c0,0 2.33,10.89 14.92,10.28c0,0 17.37,3.23 21.16,0c3.79,-3.23 7.21,-5.77 9,-6.14c1.79,-0.37 3.42,-2.44 3.42,-2.44l0,-14.54l-6.51,-13.81Z" style="fill:#4c4981;fill-rule:nonzero;"/><path d="M645.26,459.72c0,0 3.06,11.38 1.1,12.6l-1.1,-12.6Z" style="fill-opacity:0.1;fill-rule:nonzero;"/><path d="M747.04,532.53c-16.27,0.52 -52.12,1.17 -53.72,-3c-0.359,-1.06 -0.548,-2.171 -0.56,-3.29l53.15,2.8l1.13,3.49Z" style="fill-opacity:0.1;fill-rule:nonzero;"/><path d="M751.04,634.6c0,0 -1,2.78 -2.37,6.43c-6.75,-0.41 -15.69,-0.84 -24.18,-0.9c-3,0 -5.94,0 -8.72,0.1c-5.9,0.18 -11,0.66 -14.25,1.58c-4.109,1.265 -8.404,1.82 -12.7,1.64c-1.1,-4.23 -1.86,-7.27 -1.86,-7.27c0,0 18.48,-1.55 29.69,-2.09l0.88,-6.22l33.51,6.73Z" style="fill-opacity:0.1;fill-rule:nonzero;"/><path d="M765.35,589.84l-2.08,4.4c0,0 -0.29,1.31 -0.66,3.39c-0.78,4.48 -2,12.56 -1.54,19c0.61,9.42 -1.35,23.72 -1.35,23.72c0,0 -45,-3.79 -58.2,0c-13.2,3.79 -19.7,0 -19.7,0c0,0 1.6,-14.18 -2.32,-21.52c-2.67,-5 -4.55,-27.32 -4.61,-42c0,-6.77 0.34,-11.9 1.19,-12.94c2.69,-3.3 14.18,-36.32 14.18,-36.32l2.62,0.14l7,0.37l39.8,2.1l6.25,0.33l0.66,2l18.76,57.33Z" style="fill:#444053;fill-rule:nonzero;"/><path d="M785.16,575.16l0.37,3.92c0,0 -19.71,-6.42 -18.71,-14.31c1,-7.89 0,-7 0,-7l15.84,1.34l2.5,16.05Z" style="fill:#4c4981;fill-rule:nonzero;"/><path d="M785.16,575.16l0.37,3.92c0,0 -19.71,-6.42 -18.71,-14.31c1,-7.89 0,-7 0,-7l15.84,1.34l2.5,16.05Z" style="fill-opacity:0.1;fill-rule:nonzero;"/><path d="M658.41,462.88c2.012,1.71 4.385,2.944 6.94,3.61c-0.74,-0.161 -1.428,-0.504 -2,-1c-1.41,-1 -2.75,-2.09 -4.11,-3.15c-1.1,-0.86 -2.47,-2.29 -3.82,-2.64c0.884,1.161 1.886,2.226 2.99,3.18Z" style="fill-opacity:0.1;fill-rule:nonzero;"/><path d="M658.71,468.03c0.634,0.716 1.147,1.53 1.52,2.41c0.631,2.489 0.593,5.101 -0.11,7.57l-3.16,-7.62c-0.55,-1.3 -1.1,-2.6 -1.76,-3.84c-0.29,-0.53 -2.11,-2.74 -1.9,-3.2c0.56,-1.3 4.82,3.95 5.41,4.68Z" style="fill-opacity:0.1;fill-rule:nonzero;"/><path d="M746.88,510.23c2.154,-0.261 4.169,-1.204 5.75,-2.69c-3.25,0.41 -6.33,1.69 -9.53,2.36c-2.971,0.69 -6.086,0.402 -8.88,-0.82c3.68,1.8 8.74,1.86 12.66,1.15Z" style="fill-opacity:0.1;fill-rule:nonzero;"/><path d="M737.69,487.84c-0.582,0.087 -1.176,-0.061 -1.65,-0.41c-2.44,-1.4 -4.847,-2.86 -7.22,-4.38c-2.31,-1.49 -5.1,-3 -7.07,-4.88c4.85,4.38 9.37,8.08 15.94,9.67Z" style="fill-opacity:0.1;fill-rule:nonzero;"/><path d="M744.47,513.78c1.281,0.058 2.565,-0.046 3.82,-0.31c1.269,-0.264 2.392,-1.001 3.14,-2.06c-0.454,-0.105 -0.931,-0.029 -1.33,0.21c-3.874,1.63 -8.13,2.14 -12.28,1.47c1.99,0.85 4.54,0.68 6.65,0.69Z" style="fill-opacity:0.1;fill-rule:nonzero;"/><path d="M721.31,570.56c-2.546,0.768 -5.162,1.28 -7.81,1.53c-2.06,0.095 -4.125,0.055 -6.18,-0.12l-10,-0.63l-5,-0.32c-0.59,0 -3,0 -1.81,-1.19c0.6,-0.58 3.94,-0.21 4.8,-0.24c1.66,-0.053 3.327,-0.083 5,-0.09c3.31,0 6.63,0 9.94,0.2c3.71,0.18 7.36,0.46 11.06,0.86Z" style="fill-opacity:0.1;fill-rule:nonzero;"/><path d="M709.72,575.51c-1.7,-0.07 -3.89,0.94 -5.64,1.16c-1.958,0.231 -3.93,0.308 -5.9,0.23c-3.897,-0.094 -7.747,-0.879 -11.37,-2.32c7.63,0.39 15.28,0.62 22.91,0.93Z" style="fill-opacity:0.1;fill-rule:nonzero;"/><path d="M688.3,580.75c0.74,0.149 1.468,0.35 2.18,0.6c4.22,1.2 8.71,0.14 13,-0.92c-1.07,1.61 -3,2.3 -4.93,2.74c-3.139,0.795 -6.411,0.915 -9.6,0.35c-1,-0.2 -3.51,-0.56 -4,-1.6c-0.82,-1.53 2.41,-1.32 3.35,-1.17Z" style="fill-opacity:0.1;fill-rule:nonzero;"/><path d="M711.96,588.64c1.265,0.259 2.514,0.593 3.74,1c4.75,1.18 9.68,-0.44 14.45,-1.53c5.734,-1.302 11.614,-1.847 17.49,-1.62c-1.05,0 -2.72,0.92 -3.75,1.23c-1.35,0.41 -2.72,0.79 -4.09,1.13c-2.69,0.66 -5.42,1.2 -8.17,1.59c-5.552,0.803 -11.17,1.047 -16.77,0.73c-2.56,-0.14 -7,0.12 -9.19,-1.17c1.893,-1.125 4.102,-1.602 6.29,-1.36Z" style="fill-opacity:0.1;fill-rule:nonzero;"/><path d="M713.75,437.82c0,0 0.24,11.26 -1.59,16.4c-0.58,1.6 -1.48,4.55 -2.46,7.86c-1.07,3.67 -2.24,7.78 -3.14,11c-0.9,3.22 -1.5,5.38 -1.5,5.38c0,0 -4.13,33.64 -5.2,49.67c0,0.28 0,0.57 -0.06,0.84c-0.06,0.9 -0.16,1.84 -0.31,2.81c-2.38,15.92 -16.11,40.47 -20.72,42.43c-1.438,0.66 -2.75,1.563 -3.88,2.67c0,-6.77 0.34,-11.9 1.19,-12.94c2.69,-3.3 14.18,-36.32 14.18,-36.32l2.62,0.14c-0.06,-0.46 -0.1,-1 -0.12,-1.47c-0.21,-6.37 2.76,-16.15 2.76,-16.15c0,0 1.71,-19.57 1.71,-20.42c0,-0.85 -1.47,-14.56 -1.47,-14.56l2.94,-11l5.63,-3.94c0.7,-8.49 2.37,-18.8 6.36,-21.61c1.998,-1.564 3.593,-3.584 4.65,-5.89c0.79,0.11 -0.65,-0.59 -0.65,-0.59l-0.94,5.69Z" style="fill-opacity:0.1;fill-rule:nonzero;"/><path d="M715.9,431.51c-2.063,-0.705 -4.337,-0.448 -6.19,0.7c-2.82,2 -8.32,1.83 -9.79,1.47c-1.47,-0.36 -16.75,-2.33 -18,-1.84c-1.25,0.49 -3.67,-1.71 -5.26,1.23c-1.59,2.94 -2.32,4.52 -3.91,5.25c-1.59,0.73 -4.41,3.06 -4,3.55c0.41,0.49 -4,3.42 -4,3.42l8.92,29c0,0 -5.75,36.68 -8.56,39.86c-2.81,3.18 -27.76,44.39 -18.83,51.73c7.07,5.559 14.551,10.573 22.38,15c1,0.49 4.52,-6.11 9.41,-8.19c4.89,-2.08 20.06,-29.6 21,-45.25c0.94,-15.65 5.26,-50.5 5.26,-50.5c0,0 5.26,-19.08 7.09,-24.22c1.83,-5.14 1.59,-16.4 1.59,-16.4l2.89,-4.81Z" style="fill:#4c4981;fill-rule:nonzero;"/><path d="M765.35,589.84l-2.08,4.4c0,0 -0.29,1.31 -0.66,3.39c-0.371,-0.047 -0.719,-0.203 -1,-0.45c-3.06,-2.45 -21,-20.91 -21.89,-37.3c-0.63,-12.09 -0.33,-22.51 -0.13,-27.15c0.06,-1.46 0.12,-2.34 0.12,-2.53c0,-0.19 13.94,-16.88 12.35,-22.86c-1.59,-5.98 -5.26,-38 -5.26,-38l-0.54,-4.2l-0.93,-7.1l-2.22,-17.18l2.3,0.54c0.391,0.537 0.859,1.012 1.39,1.41l2.38,15.11l8.26,9.1l1.35,55.4l-3.8,9.9c0,0 -3.09,0.14 -7.91,0.29l-0.47,0l18.74,57.23Z" style="fill-opacity:0.1;fill-rule:nonzero;"/><path d="M773.05,498.39c0,0 -3.42,-1.35 -3.66,0c-0.24,1.35 -0.86,4.27 -0.86,4.27c0,0 0.61,7.1 -2,9.91c-2.61,2.81 -3,14.67 -3,14.67c0,0 -4.12,11.74 -2.17,15.41c0.71,1.33 1.81,8 2.91,16c0.7,5 1.39,10.49 2,15.51c1.11,9.12 1.94,16.67 1.94,16.67c0,0 -2.21,8.07 -5.27,5.62c-3.06,-2.45 -21,-20.91 -21.88,-37.3c-0.6,-11.51 -0.36,-21.51 -0.16,-26.44c0.08,-2.09 0.16,-3.27 0.16,-3.27c0,0 13.94,-16.88 12.35,-22.87c-1.59,-5.99 -5.26,-38 -5.26,-38l-0.64,-4.95l-0.69,-5.32l-0.16,-1.17l-2.21,-17c0.39,0.09 14.11,3.19 15.92,5c1.81,1.81 13,4.4 13,4.4c3.433,0.931 6.097,3.665 6.94,7.12c0.11,0.34 0.19,0.7 0.27,1.07c1.47,7.1 1,7.95 2,9.18c1,1.23 -9.53,31.49 -9.53,31.49Z" style="fill:#4c4981;fill-rule:nonzero;"/><path d="M766.35,574.15c-5,-1 -12.42,-3.31 -12.25,-8.41c0.15,-4.77 5.89,-6.49 10.24,-7.1c0.7,4.98 1.39,10.49 2.01,15.51Z" style="fill-opacity:0.1;fill-rule:nonzero;"/><path d="M781.86,571.61c-0.2,0.43 -1,0.8 -2.14,1.13c-2.675,0.637 -5.392,1.081 -8.13,1.33c-2.738,0.249 -17,-1.35 -16.76,-9.06c0.18,-5.53 7.86,-7 12.17,-7.33c0.954,-0.089 1.912,-0.129 2.87,-0.12c0.958,0.009 12.72,12.47 11.99,14.05Z" style="fill:#ae6e79;fill-rule:nonzero;"/><path d="M781.86,571.61c-0.2,0.43 -1,0.8 -2.14,1.13c-4.43,-5.93 -10.61,-13.54 -13.64,-14.21l0.92,-0.85c0.954,-0.089 1.912,-0.129 2.87,-0.12c0.958,0.009 12.72,12.47 11.99,14.05Z" style="fill-opacity:0.1;fill-rule:nonzero;"/><path d="M777.58,466.08l5,0.74c1.805,3.18 3.809,6.243 6,9.17c1.343,1.67 2.115,3.728 2.2,5.87c0.085,2.142 7.34,10.88 9.66,12.1c2.32,1.22 5.87,9.54 5.87,9.54c0,0 5.75,3.79 5.75,8.07c0.102,3.569 0.47,7.126 1.1,10.64c0.13,0.61 -0.85,8.2 -3.3,12c-2.45,3.8 -4.9,12.18 -4.77,13.68c0.13,1.5 -6.85,9.3 -8.8,11.74c-1.628,2.282 -3.059,4.697 -4.28,7.22l-6.48,12.23c0,0 -13.7,-20.18 -18.71,-21.28c0,0 5.62,-5.38 8.43,-6.36c2.81,-0.98 5.51,-9 5.63,-10.88c0.12,-1.88 2.57,-7.95 5.13,-9c2.56,-1.05 3.92,-2.2 2.82,-3.92c-1.1,-1.72 0,-5 0,-5c0,0 -7.22,-9.54 -8.2,-15c-0.98,-5.46 -7.58,-9.17 -7.58,-9.17l-3.79,-9.3l8.32,-23.09Z" style="fill:#4c4981;fill-rule:nonzero;"/><path d="M795.77,511.73c2.766,-2.336 6.25,-3.656 9.87,-3.74c-2.32,0.4 -4.76,0.91 -6.46,2.53c-0.668,0.701 -1.267,1.465 -1.79,2.28c-0.58,0.83 -5.3,6.83 -6,5.88c-1.17,-1.39 3.43,-6.14 4.38,-6.95Z" style="fill-opacity:0.1;fill-rule:nonzero;"/><path d="M784.69,505.94c1.522,-0.131 2.86,-1.078 3.49,-2.47c0.596,-1.378 0.964,-2.844 1.09,-4.34c0.358,-2.504 0.862,-4.985 1.51,-7.43c0.394,-0.979 0.316,-2.086 -0.21,-3c-0.268,-0.781 -0.631,-1.527 -1.08,-2.22c-0.9,1 -1.16,3.33 -1.53,4.67c-0.46,1.66 -0.88,3.33 -1.28,5c-0.21,0.8 -1.87,9.79 -1.99,9.79Z" style="fill-opacity:0.1;fill-rule:nonzero;"/><path d="M780.36,456.57c-0.493,0.645 -1.06,1.229 -1.69,1.74c-2,1.59 -4.65,2.93 -4.9,5.44c0.07,0.815 -0.033,1.637 -0.3,2.41c-0.64,1.1 -2.21,1 -3.46,0.79c-1.055,-0.095 -2.066,-0.468 -2.93,-1.08c-1.31,-1.12 -1.43,-3.12 -2.43,-4.53c-1.231,-1.474 -3.082,-2.292 -5,-2.21c-1.87,-0.06 -3.73,0.36 -5.6,0.44c-1.202,0.061 -2.407,-0.02 -3.59,-0.24c-0.391,-0.06 -0.778,-0.14 -1.16,-0.24c-0.836,-0.206 -1.652,-0.483 -2.44,-0.83c-0.408,-0.162 -0.805,-0.349 -1.19,-0.56c-1.252,-0.643 -2.412,-1.45 -3.45,-2.4c-1.83,-1.68 -3.35,-4 -3.2,-6.49c0.09,-1.53 0.78,-2.94 1,-4.45c0.75,-4.32 -2.12,-8.4 -5.23,-11.49c-1.24,-1.23 -2.56,-2.42 -3.8,-3.67c-1.931,-1.781 -3.455,-3.957 -4.47,-6.38c-0.834,-2.579 -1.107,-5.307 -0.8,-8c0.281,-2.73 0.358,-5.478 0.23,-8.22c-0.92,-9.72 -9.22,-17.17 -17.52,-21.22l-0.37,-0.19c5.058,-5.805 12.392,-9.142 20.092,-9.142c14.62,0 26.65,12.03 26.65,26.65c0,8.483 -4.05,16.476 -10.892,21.492c-0.09,0.31 -0.17,0.62 -0.24,0.92c-1.92,7.68 -0.65,12.34 0.78,14.91c0.39,0.09 14.11,3.19 15.92,5c1.81,1.81 13,4.4 13,4.4c3.46,0.921 6.148,3.67 6.99,7.15Z" style="fill-opacity:0.1;fill-rule:nonzero;"/><path d="M706.3,378.14c0.55,-0.63 1.38,-0.95 1.94,-1.56c1.73,-1.88 0,-4.95 0.63,-7.43c0.68,-2.75 4.06,-3.95 6.88,-3.66c2.82,0.29 5.46,1.59 8.28,1.91c4.38,0.49 8.62,-1.41 12.89,-2.52c4.27,-1.11 9.43,-1.17 12.37,2.1c2.94,3.27 2.74,8.84 6.4,11.21c1.69,1.09 3.82,1.21 5.65,2c2.002,1.028 3.664,2.616 4.78,4.57c2.896,4.549 4.172,9.946 3.62,15.31c-0.31,2.9 -1.15,5.72 -1.49,8.62c-0.345,3.012 -0.142,6.061 0.6,9c0.77,3 2.44,6.24 5.43,7.2c0.691,0.152 1.362,0.384 2,0.69c1.73,1.08 1.5,3.62 1.06,5.6l-1.78,8.21c1.71,1.3 4.37,0.74 6,2.11c0.653,0.597 1.136,1.356 1.4,2.2c1.642,4.69 0.209,9.937 -3.59,13.14c-2,1.59 -4.65,2.93 -4.9,5.43c0.076,0.816 -0.026,1.638 -0.3,2.41c-0.63,1.1 -2.21,1 -3.46,0.79c-1.051,-0.097 -2.059,-0.469 -2.92,-1.08c-1.32,-1.12 -1.43,-3.12 -2.43,-4.53c-1.233,-1.472 -3.082,-2.289 -5,-2.21c-1.88,-0.06 -3.73,0.36 -5.61,0.45c-4.334,0.178 -8.57,-1.353 -11.79,-4.26c-1.84,-1.69 -3.35,-4 -3.21,-6.5c0.09,-1.52 0.78,-2.94 1,-4.45c0.74,-4.31 -2.12,-8.4 -5.23,-11.49c-3.11,-3.09 -6.76,-5.94 -8.28,-10.05c-1.9,-5.09 -0.06,-10.77 -0.57,-16.17c-0.92,-9.73 -9.21,-17.17 -17.52,-21.23c-1.85,-0.95 -5,-3.36 -2.85,-5.81Z" style="fill:#444053;fill-rule:nonzero;"/><path d="M771.7,462.12c-1.32,-1.13 -1.43,-3.12 -2.43,-4.53c-1.233,-1.473 -3.081,-2.293 -5,-2.22c-1.88,-0.06 -3.74,0.36 -5.61,0.45c-4.35,0.191 -8.605,-1.345 -11.83,-4.27c-1.84,-1.68 -3.34,-4 -3.2,-6.49c0.09,-1.53 0.78,-2.95 1,-4.45c0.75,-4.32 -2.12,-8.41 -5.23,-11.5c-3.11,-3.09 -6.75,-5.94 -8.28,-10.05c-1.89,-5.08 0,-10.76 -0.56,-16.17c-0.93,-9.73 -9.22,-17.17 -17.52,-21.23c-1.94,-0.95 -5.09,-3.36 -2.94,-5.81c0.54,-0.63 1.37,-0.95 1.93,-1.56c1.73,-1.87 0,-4.95 0.64,-7.42c0.123,-0.492 0.337,-0.956 0.63,-1.37c-2.09,0.39 -4,1.57 -4.51,3.57c-0.61,2.48 1.1,5.55 -0.63,7.43c-0.56,0.61 -1.39,0.93 -1.94,1.55c-2.15,2.45 1,4.87 2.94,5.81c8.31,4.06 16.6,11.51 17.52,21.23c0.51,5.41 -1.33,11.09 0.57,16.18c1.52,4.1 5.17,7 8.28,10.05c3.11,3.05 6,7.17 5.23,11.49c-0.421,1.462 -0.755,2.948 -1,4.45c-0.14,2.49 1.37,4.81 3.21,6.49c3.221,2.927 7.472,4.463 11.82,4.27c1.88,-0.09 3.73,-0.5 5.61,-0.45c1.919,-0.072 3.767,0.748 5,2.22c1,1.41 1.11,3.41 2.43,4.53c0.862,0.607 1.87,0.976 2.92,1.07c1.25,0.23 2.83,0.31 3.46,-0.78c0.224,-0.445 0.321,-0.943 0.28,-1.44c-1.006,-0.099 -1.969,-0.461 -2.79,-1.05Z" style="fill-opacity:0.1;fill-rule:nonzero;"/><path d="M281.14,382.39l-17.84,0l0,-17.62l17.84,0l0,17.62Zm-0.27,-26.5l-17.3,0c0,-27.3 25.95,-25.71 25.95,-43c-0.038,-9.42 -7.8,-17.15 -17.22,-17.15c-0.027,0 -0.053,0 -0.08,0c-9.437,0.218 -17.118,7.962 -17.26,17.4l-17.3,0c0.238,-18.82 15.786,-34.172 34.607,-34.172c18.72,0 34.22,15.187 34.603,33.902c-0.05,21.6 -26,24.06 -26,42.98l0,0.04Z" style="fill:#ffb320;fill-opacity:0.1;fill-rule:nonzero;"/><path d="M416.22,504.8l-17.84,0l0,-17.57l17.84,0l0,17.57Zm-0.26,-26.49l-17.3,0c0,-27.31 25.95,-25.71 25.95,-43c-0.038,-9.415 -7.795,-17.14 -17.21,-17.14c-0.03,0 -0.06,0 -0.09,0c-9.479,0.171 -17.217,7.941 -17.35,17.42l-17.3,0c0.238,-18.82 15.786,-34.172 34.607,-34.172c18.72,0 34.22,15.187 34.603,33.902c0.03,21.6 -25.91,24.07 -25.91,42.99Z" style="fill:#ffb320;fill-opacity:0.1;fill-rule:nonzero;"/><path d="M498.36,288.1l-12.93,0l0,-12.71l12.93,0l0,12.71Zm-0.19,-19.21l-12.54,0c0,-19.78 18.81,-18.63 18.81,-31.15c-0.033,-6.824 -5.656,-12.42 -12.48,-12.42c-0.02,0 -0.04,0 -0.06,0c-6.856,0.139 -12.445,5.763 -12.54,12.62l-12.54,0c0,-0.033 0,-0.067 0,-0.1c0,-13.759 11.321,-25.08 25.08,-25.08c13.721,0 25.025,11.259 25.08,24.98c-0.02,15.65 -18.81,17.44 -18.81,31.15Z" style="fill:#ffb320;fill-opacity:0.1;fill-rule:nonzero;"/><path d="M719.2,306.04l-7.31,0l0,-7.2l7.31,0l0,7.2Zm-0.11,-10.85l-7.13,0c0,-11.18 10.63,-10.53 10.63,-17.61c0,0 0,0 0,0c0,-3.841 -3.16,-7 -7,-7c-0.027,0 -0.053,0 -0.08,0c-3.874,0.08 -7.032,3.256 -7.09,7.13l-7.09,0c0.171,-7.657 6.517,-13.863 14.176,-13.863c7.618,0 13.944,6.139 14.174,13.753c0.04,8.79 -10.59,9.84 -10.59,17.59Z" style="fill:#ffb320;fill-opacity:0.1;fill-rule:nonzero;"/><path d="M830.96,633.51l-7.31,0l0,-7.2l7.31,0l0,7.2Zm-0.11,-10.85l-7.09,0c0,-11.19 10.64,-10.53 10.64,-17.61c-0.027,-3.864 -3.226,-7.022 -7.09,-7c-3.876,0.075 -7.037,3.254 -7.09,7.13l-7.09,0c0.171,-7.657 6.517,-13.863 14.176,-13.863c7.618,0 13.944,6.139 14.174,13.753c0.04,8.83 -10.59,9.84 -10.59,17.59l-0.04,0Z" style="fill:#ffb320;fill-opacity:0.1;fill-rule:nonzero;"/><defs><linearGradient id="_Linear1" x1="0" y1="0" x2="1" y2="0" gradientUnits="userSpaceOnUse" gradientTransform="matrix(2.87027e-14,-468.75,468.75,2.87027e-14,697.2,832.05)"><stop offset="0" style="stop-color:#808080;stop-opacity:0.247059"/><stop offset="0.54" style="stop-color:#808080;stop-opacity:0.117647"/><stop offset="1" style="stop-color:#808080;stop-opacity:0.0980392"/></linearGradient></defs></svg>