<?xml version="1.0" encoding="utf-8"?>
<!-- Generator: Adobe Illustrator 24.0.0, SVG Export Plug-In . SVG Version: 6.00 Build 0)  -->
<svg version="1.1" id="Layer_1" xmlns:serif="http://www.serif.com/"
	 xmlns="http://www.w3.org/2000/svg" xmlns:xlink="http://www.w3.org/1999/xlink" x="0px" y="0px" viewBox="0 0 2551.2 3401.6"
	 style="enable-background:new 0 0 2551.2 3401.6;" xml:space="preserve">
<style type="text/css">
	.st0{fill-rule:evenodd;clip-rule:evenodd;fill:#FFB320;fill-opacity:0.1;}
	.st1{fill:#FFB320;fill-opacity:0.1;}
	.st2{fill:#FFB320;}
	.st3{fill:url(#SVGID_1_);}
	.st4{fill:#4C4981;}
	.st5{fill-opacity:0.1;}
	.st6{fill:#AE6E79;}
	.st7{fill:#444053;}
	.st8{fill:#FFFFFF;}
</style>
<ellipse class="st0" cx="1813" cy="2737.9" rx="260.6" ry="25.7"/>
<path class="st1" d="M1116.9,668.5c114.8-42.7,254.5-6,373.8,47.5c374.8,168.1,647.8,487.2,864.7,812.4
	c78.5,117.7,153.1,240.6,182.7,372.1c60.1,267.5-96.7,544.4-363.4,641.5c-90.7,33-190.3,46.6-290.1,54.1
	c-177.4,13.4-361.2,8.1-537.2-41.7c-125.5-35.6-244.3-92.8-358.2-156c-318.1-176.7-608.5-406.1-817.7-686.3
	C79.9,1589.1,2.3,1450.6,0.1,1308.8c-2.2-141.8,90.2-284.3,242.2-308.4c62.9-10,129.4,0.4,194.2,11.1
	c95.5,15.7,192.3,32.3,286.8,25.4c97.5-7.1,224.4-45.3,242.2-138.4C984.3,798.4,1002.2,711.1,1116.9,668.5L1116.9,668.5z"/>
<path class="st2" d="M620.1,2590.9c0,0,122.6-7.4,108.2,78.5c0,0,2.9,15.2-10.9,22.1c0,0-0.2-6.4-12.6-4.2c-4.4,0.8-8.9,1-13.3,0.7
	c-6-0.4-11.7-2.8-16.3-6.7c-4.6-4-34.5-14.2-47.9-70.6c0,0-9.9-12.3-9.5-15.4l20.7,8.8c0,0-7.1,14.9-1.5,27.3c0,0,0.7-26.8,4.7-26.2
	c0.8,0.1,10.7,5.1,10.7,5.1s-12.2,26-3,44.9c0,0-3.5-32,6.8-43l14.6,8.5c0,0-14.2,26.9-4.6,48.8c0,0-2.5-33.6,7.6-46.7l13.2,10.2
	c0,0-13.4,26.5-5.2,44.7c0,0,1-39.2,8.1-42.1c0,0,11.6,10.2,13.3,14.4c0,0-9.1,19.2-3.5,29.3c0,0,3.5-26.1,6.4-26.2
	c0,0,11.5,17.3,12.7,29.1c0,0-0.5-17.6-9.9-30.8c0,0,11.1,1.9,17.6,9.1c0,0-1.8-12.2-20.5-13.3c0,0-9.5-13.1-12.1-13.9
	c0,0,18.6-1.5,29.8,3.5c0,0-9.9-11.5-33.2-6.3l-13-10.6c0,0,24.5-3.4,34.8,0.4c0,0-11.9-10.2-38.3-2.8l-14.2-8.5
	c0,0,20.8-4.5,33.3-2.9c0,0-13.1-7.1-37.4,0.6l-10.2-4.5c0,0,15.2-3,19.7-3.5c4.5-0.5,4.7-1.7,4.7-1.7c-9.7-1.6-19.6-0.5-28.7,3.2
	C632.1,2603.8,619.7,2592.4,620.1,2590.9L620.1,2590.9z"/>
<ellipse class="st0" cx="704.5" cy="2699.1" rx="86.8" ry="14.7"/>
<path class="st2" d="M455.8,2533.1c0,0,69.1-4.2,61,44.3c0.9,5-1.6,10.1-6.1,12.5c-4.5,2.4-0.1-3.6-7.1-2.4c-2.5,0.4-5,0.5-7.5,0.4
	c-3.4-0.2-6.6-1.5-9.2-3.8s-19.4-8.1-27-39.8c0,0-5.6-6.9-5.4-8.7l11.7,5.1c0,0-4,8.4-0.9,15.4c0,0,0.4-15.1,2.5-14.8
	c0.5,0,6.1,2.9,6.1,2.9s-6.9,14.7-1.7,25.4c0,0-2-18.1,3.8-24.3l8.2,4.8c0,0-8,15.2-2.5,27.5c0,0-1.4-19,4.3-26.3l7.4,5.8
	c0,0-7.6,14.9-2.9,25.2c0,0,0.6-22.1,4.5-23.7c0,0,6.5,5.7,7.5,8.1c0,0-5.1,10.8-2,16.5c0,0,2-14.7,3.6-14.8c0,0,6.5,9.7,7.1,16.4
	c-0.3-6.2-2.3-12.2-5.6-17.4c3.7,0.7,7.2,2.5,9.9,5.1c2.7,2.6-1-6.9-11.5-7.5c0,0-5.4-7.4-6.8-7.8c0,0,10.5-0.9,16.8,1.9
	c0,0-5.6-6.5-18.8-3.6l-7.3-6c0,0,13.8-1.9,19.6,0.2c0,0-6.7-5.7-21.6-1.6l-8-4.8c6.1-1.3,12.4-1.9,18.7-1.6c6.3,0.3-7.4-4-21.1,0.3
	l-5.7-2.5c0,0,8.6-1.7,11.1-2c2.5-0.3,2.7-1,2.7-1c-5.5-0.9-11.1-0.3-16.2,1.8C462.5,2540.6,455.6,2534,455.8,2533.1L455.8,2533.1z"
	/>
<ellipse class="st0" cx="503.4" cy="2594.1" rx="48.9" ry="8.3"/>
<path class="st2" d="M2156.8,2579.7c0,0,83.5-5.1,73.7,53.4c1,6.1-2,12.2-7.4,15s-0.2-4.3-8.6-2.9c-3,0.5-6,0.7-9.1,0.4
	c-4.1-0.3-8-1.9-11.1-4.6c-3.1-2.7-23.5-9.7-32.6-48.1c0,0-6.8-8.4-6.5-10.5l14.1,6c0,0-4.8,10.2-1,18.6c0,0,0.5-18.2,3.2-17.8
	c0.6,0,7.3,3.5,7.3,3.5s-8.3,17.8-2,30.5c0,0-2.4-21.8,4.6-29.3l9.9,5.8c0,0-9.7,18.3-3.1,33.2c0,0-1.7-22.9,5.1-31.8l9,7
	c0,0-9.1,18-3.6,30.5c0,0,0.7-26.6,5.5-28.7c0,0,7.9,6.9,9,9.8c0,0-6.2,13.1-2.4,20c0,0,2.4-17.8,4.3-17.8c0,0,7.8,11.8,8.6,19.8
	c-0.4-7.4-2.7-14.7-6.7-20.9c4.5,0.9,8.7,3,12,6.2c3.3,3.2-1.2-8.3-14-9c0,0-6.5-8.9-8.2-9.5c0,0,12.7-1.1,20.3,2.3
	c0,0-6.8-7.8-22.6-4.3l-8.9-7.2c0,0,16.6-2.3,23.7,0.2c0,0-8.1-6.9-26.1-1.9l-9.7-5.8c0,0,14.2-3,22.6-2c0,0-8.9-4.8-25.4,0.4
	l-6.9-3.1c0,0,10.4-2.1,13.4-2.4c3-0.3,3.2-1.2,3.2-1.2c-6.6-1.1-13.3-0.4-19.5,2.2C2165,2588.6,2156.5,2580.7,2156.8,2579.7
	L2156.8,2579.7z"/>
<ellipse class="st0" cx="2214.2" cy="2653.3" rx="59.1" ry="10"/>
<linearGradient id="SVGID_1_" gradientUnits="userSpaceOnUse" x1="1.802974e-04" y1="3401.575" x2="0.9998" y2="3401.575" gradientTransform="matrix(7.293405e-14 -1191.1017 -1191.1017 -7.293405e-14 4053393.25 2751.625)">
	<stop  offset="0" style="stop-color:#808080;stop-opacity:0.2471"/>
	<stop  offset="0.54" style="stop-color:#808080;stop-opacity:0.1176"/>
	<stop  offset="1" style="stop-color:#808080;stop-opacity:9.803920e-02"/>
</linearGradient>
<path class="st3" d="M2073.6,1962.8c-1.6-8.9-2.5-18-2.8-27.1c0-10.9-14.8-20.6-14.8-20.6s-9.1-21.2-15.2-24.3
	c-6.1-3.1-24.9-30.8-24.9-30.8c-0.2-5.5-2.2-10.7-5.7-14.9c-5.6-7.4-10.8-15.2-15.4-23.3c-2.5-3.1-1.3-5.3-5.1-23.4
	c-0.2-0.9-0.4-1.9-0.7-2.7c0-0.4-0.3-0.8-0.4-1.2c8.2-8.3,11-20.6,7.2-31.6c-0.7-2.1-1.9-4.1-3.6-5.6c-4.3-3.5-11.2-2.1-15.6-5.4
	l4.7-20.8c1.1-5.1,1.7-11.5-2.7-14.3c-1.7-0.8-3.4-1.4-5.2-1.8c-7.6-2.5-12-10.6-14-18.3c-1.9-7.5-2.4-15.2-1.5-22.9
	c0.9-7.4,3-14.5,3.8-21.9c1.4-13.7-1.9-27.4-9.3-39c-2.9-5-7.2-9-12.3-11.6c-4.7-2.1-10.2-2.5-14.6-5.1c-9.5-6-9-20.3-16.5-28.5
	s-20.9-8.2-31.9-5.4c-11,2.8-22,7.6-33.2,6.4c-7.3-0.8-14.1-4.1-21.4-4.9c-2.1-0.2-4.2-0.1-6.3,0.3v-0.2c-5.4,1-10.3,4-11.6,9.1
	c-0.3,1.2-0.4,2.5-0.4,3.7c0,3,0.7,6.1,0.8,8.9c0.2,2.3-0.6,4.5-2.1,6.3c-1.4,1.5-3.6,2.4-5.1,4c-1.2,1.2-1.9,2.9-1.9,4.7
	c0,4.5,5.6,8.5,9.4,10.3h0.2c-1,1-2,2.1-3,3.2c-10.9,12.3-16.8,28.1-16.8,44.4c0.2,27,16.4,51.4,41.3,62l-0.5,1.7
	c-1.1,3.3-2.3,6.5-3.7,9.6c-5.3-1.8-11.2-1.1-16,1.8c-7.3,5.1-21.5,4.7-25.3,3.7c-3.8-0.9-43.2-5.9-46.4-4.7s-9.5-4.3-13.5,3.1
	c-4.1,7.5-6,11.5-10.2,13.4c-4.2,1.9-11.4,7.8-10.4,9c1,1.2-10.4,8.7-10.4,8.7s-9.8,10.2-15.4,11.5c-5.7,1.3-17.7,9-17.7,9
	l-13.9,10.9c0,0-10.4,1.6-7.2-5.6c3.2-7.2-5.7-16.2-5.7-16.2s-17.7-35.8-17.7-43.2s-14.5-38.9-14.5-38.9l-1.8-0.2l-0.8-2.3
	c-2.7-7.5-6.1-16.7-8.8-22.1c-5.1-10.3-8.2-11.4-8.2-11.4s-61.2-45.9-100.9-31.9c-39.7,14,72.5,55.7,82.6,60.1
	c3.5,1.5,6.1,6.5,7.9,12.2c-8.9,4.3-16.5,11.1-21.7,19.5s24.3,53.8,24.9,67.2c0.6,13.4,16.7,50.8,16.7,50.8s6,27.7,38.5,26.1
	c0,0,44.8,8.2,54.6,0c9.8-8.2,18.6-14.7,23.4-15.6c3.5-1.1,6.6-3.3,8.8-6.2c2.3-2.9-14.8,93.4-22.1,101.5
	c-7.3,8.1-71.5,112.9-48.4,131.7c18.3,14.1,37.5,26.9,57.7,38.1c2,1,7.8-8.8,16.2-15.8c0,1.8,0,3.5,0,5.4
	c0.2,37.3,5.1,94,11.9,106.7c10.2,18.7,6,54.8,6,54.8c5.3,2.5,11.1,3.9,17.1,4.1c0.3,1.2,0.7,2.5,1,3.8c5.6,21,14.6,53.5,19.2,62.2
	c6.9,13.1,12,54.5,12,54.5s4.1,40.7,2.5,46.4c-0.6,2.2,2.1,19.1,6.3,40.7c-2.5,29.2-7.4,85.5-8.2,105.8v1.5c0,0.2,0,0.5,0,0.7
	c0,0.5,0,0.9,0,1.2c-0.1,1.3,0,2.6,0.2,3.8c0.3,1.9,0.2,3.9-0.4,5.8c-1.8,5.6-4.1,11.1-6.8,16.3c-1.2,2.6-2.2,5.2-3,7.9
	c-2.5,1.1-5.6,3.8-7.4,10.5c-3.2,12.1-7.9,45.7-7.9,45.7s-1.9,20.6-5.7,25.2s-7.6,33.9,19.2,37.7c26.9,3.7,38.5-14.2,38.5-14.2
	l-0.9-81.5v-0.2c0.5-0.7,1-1.4,1.4-2.2v-0.2c0.2-0.4,0.4-0.8,0.6-1.2l0.2-0.6l0.4-1c0-0.1,0-0.2,0-0.4c2.6-7.8,3.4-16.1,2.3-24.3
	v-0.4v-0.6c0-0.2,0-0.4,0-0.6v-1.3c0-0.2,0-0.3,0-0.5c0-0.5,0.1-1.1,0.2-1.7c0.1-0.6,0-0.2,0-0.3l0.2-1v-0.4c0-0.3,0-0.7,0.2-1
	c0-0.1,0-0.2,0-0.3c0.3-1.2,0.6-2.5,0.9-3.7v-0.3l0.4-1.2c0.4-1.3,0.8-2.5,1.3-3.9v-0.3c0-0.4,0.3-0.8,0.4-1.2v-0.2
	c0.5-1.2,0.9-2.5,1.4-3.6l0.1-0.3l0.4-1l0.1-0.3l1-2.3l7.4,23c0,0,4.1,17.1,1.9,21.2s2.5,20.9,5.7,21.2l-2.9,21.2
	c-1.6,11.7-2.5,23.4-2.8,35.2c-0.2,1.3-0.4,2.5-0.6,3.4c-2,10.9,2.8,27.7,2.8,27.7c24.9,29.5,54.6,2.3,54.6,2.3s3.5-15.6,0-18.7
	c-3.5-3.1-1.9-14.3-1.9-14.3s1.6-27.7,1.9-47.9s-16.5-38.1-16.5-38.1l-0.9,0.8c-3.1-7.9-6.6-17.2-5.8-21.3
	c1.3-7.2-3.5-82.8-3.5-82.8c1.8-20.3,2.1-40.7,1.1-61c0.4-3.4,0.8-6.8,1.2-10.2c1.9-16.3,3.5-30.2,4.1-37.5v-0.9
	c0.2-2,0.2-3.4,0.2-4c0-2.5,0-5.4,0.3-8.6c0.6-8.7,2-18.5,2-18.5l6.6-40.2c0,0,5.1-19.6,12.3-30.5l0.9-1.4c0.3-0.5,0.6-1,0.9-1.6
	l0.1-0.2c0.3-0.5,0.6-1.1,0.9-1.7l0.1-0.2c1-2,2.1-4.3,3.3-6.9c0-0.2,0.2-0.4,0.3-0.6l0.9-1.9c0-0.3,0.2-0.5,0.3-0.8
	c0.1-0.3,0.5-1.3,0.8-1.9c0.1-0.3,0.2-0.5,0.3-0.8c0.3-0.8,0.7-1.5,1-2.4l0.5-1.2c0.2-0.6,0.5-1.2,0.7-1.8l0.6-1.6
	c0.2-0.4,0.3-0.8,0.5-1.1l0.7-1.8c0-0.3,0.2-0.5,0.3-0.8c1.8-4.5,3.5-8.9,5.1-13c0.5-1.3,1-2.5,1.4-3.7c16.2,1,27.1,1.9,27.1,1.9
	s5.1-36.4,3.5-60.4c-1.1-16.4,2-36.9,4-48.3c0.2-1.2,0.4-2.4,0.6-3.4l0.4,0.4c7.9,6.2,13.6-14.3,13.6-14.3s-2.1-19.2-5.1-42.4
	l-0.3-2.3c4.6,1,9.2,1.7,13.8,2.1c4.6,0.4,2.5-0.2,6-0.7c9.6,5.6,19.8,10.2,30.3,13.7l16.8-31c3.2-6.4,6.9-12.6,11.1-18.4
	c5.1-6.2,23-26.1,22.7-29.9c-0.3-3.7,6-25.2,12.3-34.9C2071.4,1983.8,2073.9,1964.4,2073.6,1962.8L2073.6,1962.8z M2003.6,1986.5
	c-6.6,2.8-12.9,18.4-13.2,23s-7.3,25.2-14.5,27.7c-6.7,2.3-19.4,14-21.5,15.9c-2.1,0.2-4.4,0.5-6.9,0.9c-2.8-19.6-5.5-35.9-7.3-39.2
	c-5.1-9.4,5.6-39.2,5.6-39.2s1-30.2,7.6-37.4s5.1-25.2,5.1-25.2s1.6-7.5,2.2-10.9c0.6-3.4,9.4,0,9.5,0c0.1,0,17,9.3,19.6,23.3
	c2.5,14,21.1,38.3,21.1,38.3s-2.8,8.4,0,12.7C2013.7,1980.7,2010.2,1983.7,2003.6,1986.5L2003.6,1986.5z"/>
<path class="st4" d="M1547.4,1720.4c10.6-17.4,30.6-26.9,50.8-23.9v36.4h-22.1l-17.3-4.4L1547.4,1720.4L1547.4,1720.4z"/>
<path class="st5" d="M1547.4,1720.4c10.6-17.4,30.6-26.9,50.8-23.9v36.4h-22.1l-17.3-4.4L1547.4,1720.4L1547.4,1720.4z"/>
<path class="st6" d="M1599.8,1706.1l-27.1,19c0,0-0.2-3.8-0.9-9c-1.3-9.8-4.4-24.5-10.9-27.4c-9.9-4.4-120.5-46-81.3-60
	c39.2-14,99.4,31.9,99.4,31.9s3.1,1.1,8.1,11.3c2.5,5.4,6,14.6,8.6,22.1C1598.2,1700.7,1599.8,1706.1,1599.8,1706.1z"/>
<path class="st4" d="M1816,1735.3l3.1-1.4l8.6,9.9l-7.1,15.1l-12-4.8l2.8-12L1816,1735.3z"/>
<path class="st7" d="M1775.1,2617.8c0,0-7.8-0.9-10.9,11.2c-3.1,12.1-7.8,45.7-7.8,45.7s-1.9,20.5-5.6,25.2
	c-3.7,4.7-7.4,33.9,19,37.6c26.4,3.7,37.9-14.2,37.9-14.2l-0.9-81.5L1775.1,2617.8L1775.1,2617.8z"/>
<path class="st7" d="M1867.2,2621.5c0,0,16.6,17.8,16.3,38s-1.9,47.8-1.9,47.8s-1.5,11.2,1.9,14.3c3.4,3.1,0,18.7,0,18.7
	s-29.2,27.1-53.8-2.3c0,0-4.8-16.8-2.8-27.6c2-10.8,7.5-59.5,7.5-59.5L1867.2,2621.5L1867.2,2621.5z"/>
<path class="st6" d="M1908.4,2249.9c0,0-16.8,46.9-23.9,57.8c-7.2,10.9-12.1,30.5-12.1,30.5l-6.5,40.1c-1.3,9-2,18-2.2,27
	c0.3,9-16.2,140.4-16.2,140.4l-26.1,33.3c0,0-11.5,23.3-9.6,33c1.9,9.7-1.2,25.2-5.1,29.8c0,0-0.6,30.5-1.6,37.3s3.4,26.1,0,29.5
	c-3.4,3.4-49.1,1.9-50.3-3.7c-1.2-5.6,5.6-32.6,5.6-32.6l4-26.1c0,0,8.1-14.3,6.2-19s3.4-15.5,3.7-16.5s8.7-16.2,7.2-22.1
	c-1.5-5.9,9.8-131.3,9.8-131.3l32-224.7L1908.4,2249.9L1908.4,2249.9z"/>
<path class="st5" d="M1908.4,2249.9c0,0-2.5,7.1-6,16.3c-5.5,14.6-13.5,34.8-17.9,41.4c-7.1,10.9-12.1,30.5-12.1,30.5l-6.5,40.1
	c-1.3,9-2,18-2.2,27c0,3.6-2.4,26.2-5.4,52.4c-4.7,40-10.7,88-10.7,88l-26.1,33.3c0,0-1.3,2.5-3,6.6c-3.3,7.6-7.9,20-6.7,26.4
	c1.9,9.6-1.2,25.2-5.1,29.8c0,0-0.6,30.5-1.6,37.3c-0.9,6.8,3.4,26.1,0,29.5s-49.1,1.9-50.3-3.7s5.6-32.6,5.6-32.6l4-26.1
	c0,0,8.1-14.3,6.2-19c-1.9-4.7,3.4-15.5,3.7-16.5c0.3-0.9,8.7-16.2,7.2-22.1c-1.2-4.5,5.1-78.1,8-113c1-11,1.6-18.1,1.6-18.1
	l27.5-193.3l2.2-15.6l2.2-15.8L1908.4,2249.9L1908.4,2249.9z"/>
<path class="st6" d="M1880.5,2717.2c0.3,3.4-43.8,8.4-50.1,4.7c-6.3-3.7,0-50,0-50l2.9-21.1c-3.1-0.3-7.8-17.1-5.6-21.1
	s-1.9-21.1-1.9-21.1l-7.3-22.9l-4.5-14c-7.3-16-17.8-61.8-24.3-95.9c-4.1-21.4-6.7-38.3-6.1-40.5c1.6-5.6-2.5-46.3-2.5-46.3
	s-5.1-41.3-11.8-54.4c-4.5-8.6-13.4-41.1-18.9-62c-2.8-10.7-4.7-18.5-4.7-18.5s47-3.9,75.4-5.3c13.1-0.6,22.3-0.7,21.2,0.4
	c-1.1,1.1-1.3,6.8-1.3,15c0.1,21.3,3.1,58.8,6.3,68.9c4.3,14,8.7,55.9,6.8,60c-1.9,4.1-1.2,31.1-1.2,31.1c3.2,11,5,22.3,5.5,33.7
	c1,20.2,0.6,40.5-1.1,60.7c-1.7,20.2,4.7,75.5,3.4,82.7c-1.2,7.1,9.9,29.5,9.9,33.9s3.1,33.9,3.1,33.9S1880.3,2713.8,1880.5,2717.2
	L1880.5,2717.2z"/>
<path class="st6" d="M1905,1809.6l-5.3,5.8l-3.5,3.8l-20.3,21.9l-52.5,5.9l-28-7.5l-6.9-1.9c0,0,0-14,1.2-30.8
	c1.8-21.6,6-47.8,16.2-54.9c5.1-4,9.1-9.1,11.8-15c2-4,3.7-8.2,5.1-12.6c0.2-0.6,0.4-1.1,0.5-1.7c2.3-7.5,3.9-15.2,4.9-23
	s6.7-3.7,16-8c24.3-11.4,66.3-27,51.7,8c-2.1,5.1-4,10.4-5.5,15.8c-0.2,0.8-0.4,1.6-0.6,2.3c-4.9,19.5-1.7,31.4,2,37.9
	c0.6,1.1,1.3,2.2,2.1,3.2c1,1.4,2.2,2.6,3.5,3.6l6,38.4l0.5,3.2L1905,1809.6L1905,1809.6z"/>
<path class="st5" d="M1896,1701.4C1893.2,1708.1,1897.3,1696,1896,1701.4c-11.1,7.9-37.2,30.3-51.8,30.3c-9.9,0-12.9-1.8-21.4-5.6
	c2.6-8,4.4-16.3,5.5-24.7C1829.3,1693.1,1916.2,1653,1896,1701.4z"/>
<path class="st6" d="M1918.4,1660.6c0,34.5-26.4,63.7-60.7,67.4c-2.3,0.2-4.7,0.4-7.1,0.4c-37.2,0-67.7-30.6-67.7-67.7
	c0-37.2,30.6-67.7,67.7-67.7C1887.8,1592.9,1918.4,1623.5,1918.4,1660.6z"/>
<path class="st5" d="M1928,1960.9l-9.7,25.2c0,0-7.9,0.3-20.1,0.7c-41.3,1.3-132.4,3-136.5-7.6c-0.9-2.7-1.4-5.5-1.4-8.4
	c-0.5-16.2,7-41,7-41s4.3-49.7,4.3-51.9s-3.7-37-3.7-37l7.5-28l20.8-14.6c0,0,9.3,14.3,14.9,15.5c5.6,1.2,13.1,8.1,13.1,8.1
	s18.3,11.2,24.2,5c5.9-6.2,51.9-33.6,51.9-33.6l24.2,26.7L1928,1960.9L1928,1960.9z"/>
<path class="st8" d="M1928,1964.8l-9.7,25.2c0,0-7.9,0.4-20.1,0.7h-1.2c-5.3,0.2-11.3,0.4-17.8,0.5c-32.9,0.8-78.1,1-101.8-2.5
	c-8.9-1.3-14.7-3.1-15.7-5.6c-0.5-1.5-0.9-3-1.1-4.6c-0.2-1.2-0.3-2.5-0.3-3.7c-0.5-16.2,7-41,7-41s4.3-49.7,4.3-51.9
	c0-2.2-3.7-37-3.7-37l7.5-28l14.3-10l6.5-4.6c2.2,3.3,4.6,6.4,7.1,9.4c2,2.7,4.7,4.8,7.8,6.1c5.6,1.2,13.1,8.1,13.1,8.1
	s18.3,11.2,24.2,5c4.5-4.8,32.4-21.9,45.4-29.7c4-2.4,6.5-3.9,6.5-3.9l3.3,3.6l21,23.1L1928,1964.8L1928,1964.8z"/>
<path class="st5" d="M1599.8,1706.1l-27.1,19c0,0-0.2-3.8-0.9-9c13.4-5.6,21.5-18.1,23.8-22.1
	C1598.2,1700.7,1599.8,1706.1,1599.8,1706.1L1599.8,1706.1z"/>
<path class="st4" d="M1694.9,1770.4l-5.9-1.6c0,0-9.7,10.2-15.2,11.5c-5.6,1.3-17.4,9-17.4,9l-13.7,10.9c0,0-10.2,1.6-7.1-5.6
	c3-7.2-5.6-16.2-5.6-16.2s-17.4-35.7-17.4-43.2c0-7.5-14.4-38.8-14.4-38.8s-18,35.1-51,23.9c0,0,23.9,53.7,24.5,67.1
	c0.6,13.4,16.5,50.6,16.5,50.6s5.9,27.7,37.9,26.1c0,0,44.1,8.2,53.8,0c9.6-8.2,18.3-14.7,22.9-15.6c4.5-0.9,8.7-6.2,8.7-6.2v-36.9
	L1694.9,1770.4L1694.9,1770.4z"/>
<path class="st5" d="M1639.6,1805.5c0,0,7.8,28.9,2.8,32L1639.6,1805.5z"/>
<path class="st5" d="M1898.2,1990.5c-41.3,1.3-132.4,3-136.5-7.6c-0.9-2.7-1.4-5.5-1.4-8.4l135.1,7.1L1898.2,1990.5z"/>
<path class="st5" d="M1908.4,2249.9c0,0-2.5,7.1-6,16.3c-17.2-1-39.9-2.1-61.4-2.3c-7.6,0-15.1,0-22.2,0.3c-15,0.5-28,1.7-36.2,4
	c-10.4,3.2-21.4,4.6-32.3,4.2c-2.8-10.7-4.7-18.5-4.7-18.5s47-3.9,75.4-5.3l2.2-15.8L1908.4,2249.9L1908.4,2249.9z"/>
<path class="st7" d="M1944.8,2136.2l-5.3,11.2c0,0-0.7,3.3-1.7,8.6c-2,11.4-5.1,31.9-3.9,48.3c1.6,23.9-3.4,60.3-3.4,60.3
	s-114.3-9.6-147.9,0s-50.1,0-50.1,0s4.1-36-5.9-54.7c-6.8-12.7-11.6-69.4-11.7-106.7c0-17.2,0.9-30.2,3-32.9
	c6.8-8.4,36-92.3,36-92.3l6.7,0.4l17.8,0.9l101.1,5.3l15.9,0.8l1.7,5.1L1944.8,2136.2z"/>
<path class="st4" d="M1995.1,2098.9l0.9,10c0,0-50.1-16.3-47.5-36.4s0-17.8,0-17.8l40.2,3.4L1995.1,2098.9z"/>
<path class="st5" d="M1995.1,2098.9l0.9,10c0,0-50.1-16.3-47.5-36.4s0-17.8,0-17.8l40.2,3.4L1995.1,2098.9z"/>
<path class="st5" d="M1673,1813.6c5.1,4.3,11.1,7.5,17.6,9.2c-1.9-0.4-3.6-1.3-5.1-2.5c-3.6-2.5-7-5.3-10.4-8
	c-2.8-2.2-6.3-5.8-9.7-6.7C1667.7,1808.4,1670.2,1811.1,1673,1813.6L1673,1813.6z"/>
<path class="st5" d="M1673.8,1826.6c1.6,1.8,2.9,3.9,3.9,6.1c1.6,6.3,1.5,13-0.3,19.2l-8-19.4c-1.4-3.3-2.8-6.6-4.5-9.8
	c-0.7-1.3-5.4-7-4.8-8.1C1661.5,1811.4,1672.3,1824.8,1673.8,1826.6z"/>
<path class="st5" d="M1897.8,1933.9c5.5-0.7,10.6-3.1,14.6-6.8c-8.3,1-16.1,4.3-24.2,6c-7.5,1.8-15.5,1-22.6-2.1
	C1875,1935.5,1887.9,1935.7,1897.8,1933.9L1897.8,1933.9z"/>
<path class="st5" d="M1874.5,1877c-1.5,0.2-3-0.2-4.2-1c-6.2-3.6-12.3-7.3-18.3-11.1c-5.9-3.8-13-7.6-18-12.4
	C1846.3,1863.5,1857.8,1872.9,1874.5,1877z"/>
<path class="st5" d="M1891.7,1942.9c3.3,0.1,6.5-0.1,9.7-0.8c3.2-0.7,6.1-2.5,8-5.2c-1.2-0.3-2.4-0.1-3.4,0.5
	c-9.8,4.1-20.7,5.4-31.2,3.7C1879.9,1943.3,1886.3,1942.9,1891.7,1942.9z"/>
<path class="st5" d="M1832.9,2087.2c-6.5,2-13.1,3.3-19.8,3.9c-5.2,0.2-10.5,0.1-15.7-0.3l-25.4-1.6l-12.7-0.8c-1.5,0-7.6,0-4.6-3
	c1.5-1.5,10-0.5,12.2-0.6c4.2-0.1,8.5-0.2,12.7-0.2c8.4,0,16.8,0,25.3,0.5C1814.2,2085.4,1823.5,2086.2,1832.9,2087.2z"/>
<path class="st5" d="M1803.4,2099.8c-4.3-0.2-9.9,2.4-14.3,2.9c-5,0.6-10,0.8-15,0.6c-9.9-0.2-19.7-2.2-28.9-5.9
	C1764.6,2098.4,1784,2099,1803.4,2099.8L1803.4,2099.8z"/>
<path class="st5" d="M1749,2113.1c1.9,0.4,3.7,0.9,5.5,1.5c10.7,3,22.1,0.4,33-2.3c-2.7,4.1-7.6,5.8-12.5,7c-8,2-16.3,2.3-24.4,0.9
	c-2.5-0.5-8.9-1.4-10.2-4.1C1738.4,2112.2,1746.6,2112.7,1749,2113.1z"/>
<path class="st5" d="M1809.1,2133.1c3.2,0.7,6.4,1.5,9.5,2.5c12.1,3,24.6-1.1,36.7-3.9c14.6-3.3,29.5-4.7,44.4-4.1
	c-2.7,0-6.9,2.3-9.5,3.1c-3.4,1-6.9,2-10.4,2.9c-6.8,1.7-13.8,3-20.8,4c-14.1,2-28.4,2.7-42.6,1.9c-6.5-0.4-17.8,0.3-23.4-3
	C1797.9,2133.7,1803.5,2132.5,1809.1,2133.1L1809.1,2133.1z"/>
<path class="st5" d="M1813.7,1749.9c0,0,0.6,28.6-4,41.7c-1.5,4.1-3.8,11.6-6.3,20c-2.7,9.3-5.7,19.8-8,28
	c-2.3,8.2-3.8,13.7-3.8,13.7s-10.5,85.5-13.2,126.2c0,0.7,0,1.4-0.2,2.1c-0.2,2.3-0.4,4.7-0.8,7.1c-6,40.5-40.9,102.8-52.6,107.8
	c-3.7,1.7-7,4-9.9,6.8c0-17.2,0.9-30.2,3-32.9c6.8-8.4,36-92.3,36-92.3l6.7,0.4c-0.2-1.2-0.3-2.5-0.3-3.7c-0.5-16.2,7-41,7-41
	s4.3-49.7,4.3-51.9c0-2.2-3.7-37-3.7-37l7.5-28l14.3-10c1.8-21.6,6-47.8,16.2-54.9c5.1-4,9.1-9.1,11.8-15c2,0.3-1.7-1.5-1.7-1.5
	L1813.7,1749.9L1813.7,1749.9z"/>
<path class="st4" d="M1819.1,1733.8c-5.2-1.8-11-1.1-15.7,1.8c-7.2,5.1-21.1,4.7-24.9,3.7c-3.7-0.9-42.6-5.9-45.7-4.7
	c-3.2,1.2-9.3-4.3-13.4,3.1s-5.9,11.5-9.9,13.3c-4,1.9-11.2,7.8-10.2,9c1,1.2-10.2,8.7-10.2,8.7l22.7,73.7c0,0-14.6,93.2-21.8,101.3
	c-7.1,8.1-70.5,112.8-47.8,131.4c18,14.1,37,26.9,56.9,38.1c2.5,1.2,11.5-15.5,23.9-20.8c12.4-5.3,51-75.2,53.4-115
	c2.4-39.8,13.4-128.3,13.4-128.3s13.4-48.5,18-61.5c4.7-13.1,4-41.7,4-41.7L1819.1,1733.8L1819.1,1733.8z"/>
<path class="st5" d="M1944.8,2136.2l-5.3,11.2c0,0-0.7,3.3-1.7,8.6c-0.9-0.1-1.8-0.5-2.5-1.1c-7.8-6.2-53.4-53.1-55.6-94.8
	c-1.6-30.7-0.8-57.2-0.3-69c0.2-3.7,0.3-5.9,0.3-6.4c0-0.5,35.4-42.9,31.4-58.1c-4-15.2-13.4-96.6-13.4-96.6l-1.4-10.7l-2.4-18
	l-5.6-43.7l5.8,1.4c1,1.4,2.2,2.6,3.5,3.6l6,38.4l21,23.1l3.4,140.8l-9.7,25.2c0,0-7.9,0.4-20.1,0.7h-1.2L1944.8,2136.2
	L1944.8,2136.2z"/>
<path class="st4" d="M1964.3,1903.8c0,0-8.7-3.4-9.3,0c-0.6,3.4-2.2,10.9-2.2,10.9s1.6,18-5.1,25.2c-6.6,7.1-7.6,37.3-7.6,37.3
	s-10.5,29.8-5.5,39.2c1.8,3.4,4.6,20.3,7.4,40.7c1.8,12.7,3.5,26.7,5.1,39.4c2.8,23.2,4.9,42.4,4.9,42.4s-5.6,20.5-13.4,14.3
	c-7.8-6.2-53.4-53.1-55.6-94.8c-1.5-29.2-0.9-54.7-0.4-67.2c0.2-5.3,0.4-8.3,0.4-8.3s35.4-42.9,31.4-58.1
	c-4-15.2-13.4-96.6-13.4-96.6l-1.6-12.6l-1.8-13.5l-0.4-3l-5.6-43.2c1,0.2,35.9,8.1,40.5,12.7c4.6,4.6,33,11.2,33,11.2
	c8.7,2.4,15.5,9.3,17.6,18.1c0.3,0.9,0.5,1.8,0.7,2.7c3.7,18,2.5,20.2,5.1,23.3S1964.3,1903.8,1964.3,1903.8L1964.3,1903.8z"/>
<path class="st5" d="M1947.3,2096.3c-12.7-2.5-31.6-8.4-31.1-21.4c0.4-12.1,15-16.5,26-18C1944,2069.5,1945.7,2083.5,1947.3,2096.3
	L1947.3,2096.3z"/>
<path class="st6" d="M1986.7,2089.8c-0.5,1.1-2.5,2-5.4,2.9c-6.8,1.6-13.7,2.7-20.7,3.4s-43.2-3.4-42.6-23
	c0.5-14.1,20-17.8,30.9-18.6c2.4-0.2,4.9-0.3,7.3-0.3C1958.7,2054.2,1988.6,2085.8,1986.7,2089.8L1986.7,2089.8z"/>
<path class="st5" d="M1986.7,2089.8c-0.5,1.1-2.5,2-5.4,2.9c-11.3-15.1-27-34.4-34.7-36.1l2.3-2.2c2.4-0.2,4.9-0.3,7.3-0.3
	C1958.7,2054.2,1988.6,2085.8,1986.7,2089.8L1986.7,2089.8z"/>
<path class="st4" d="M1975.8,1821.7l12.7,1.9c4.6,8.1,9.7,15.9,15.2,23.3c3.4,4.2,5.4,9.5,5.6,14.9c0.2,5.4,18.7,27.6,24.5,30.7
	c5.9,3.1,14.9,24.2,14.9,24.2s14.6,9.6,14.6,20.5c0.3,9.1,1.2,18.1,2.8,27c0.3,1.5-2.2,20.8-8.4,30.5c-6.2,9.7-12.5,30.9-12.1,34.8
	s-17.4,23.6-22.4,29.8c-4.1,5.8-7.8,11.9-10.9,18.3l-16.5,31.1c0,0-34.8-51.3-47.5-54.1c0,0,14.3-13.7,21.4-16.2s14-22.9,14.3-27.6
	s6.5-20.2,13-22.9c6.5-2.7,10-5.6,7.2-10s0-12.7,0-12.7s-18.3-24.2-20.8-38.1c-2.5-13.9-19.3-23.3-19.3-23.3l-9.6-23.6
	L1975.8,1821.7L1975.8,1821.7z"/>
<path class="st5" d="M2022.1,1937.7c7-5.9,15.9-9.3,25.1-9.5c-5.9,1-12.1,2.3-16.4,6.4c-1.7,1.8-3.2,3.7-4.5,5.8
	c-1.5,2.1-13.5,17.4-15.2,14.9C2008,1951.8,2019.7,1939.7,2022.1,1937.7L2022.1,1937.7z"/>
<path class="st5" d="M1993.9,1923c3.9-0.3,7.3-2.7,8.9-6.3c1.5-3.5,2.4-7.2,2.8-11c0.9-6.4,2.2-12.7,3.8-18.9c1-2.5,0.8-5.3-0.5-7.6
	c-0.7-2-1.6-3.9-2.7-5.6c-2.3,2.5-2.9,8.5-3.9,11.9c-1.2,4.2-2.2,8.5-3.3,12.7C1998.4,1900.1,1994.2,1923,1993.9,1923L1993.9,1923z"
	/>
<path class="st5" d="M1982.9,1797.5c-1.3,1.6-2.7,3.1-4.3,4.4c-5.1,4-11.8,7.4-12.5,13.8c0.2,2.1-0.1,4.2-0.8,6.1
	c-1.6,2.8-5.6,2.5-8.8,2c-2.7-0.2-5.2-1.2-7.4-2.7c-3.3-2.8-3.6-7.9-6.2-11.5c-3.1-3.7-7.8-5.8-12.7-5.6c-4.8-0.2-9.5,0.9-14.2,1.1
	c-3.1,0.2-6.1-0.1-9.1-0.6c-1-0.2-2-0.4-2.9-0.6c-2.1-0.5-4.2-1.2-6.2-2.1c-1-0.4-2-0.9-3-1.4c-3.2-1.6-6.1-3.7-8.8-6.1
	c-4.7-4.3-8.5-10.2-8.1-16.5c0.2-3.9,2-7.5,2.5-11.3c1.9-11-5.4-21.3-13.3-29.2c-3.2-3.1-6.5-6.1-9.7-9.3
	c-4.9-4.5-8.8-10.1-11.4-16.2c-2.1-6.6-2.8-13.5-2-20.3c0.7-6.9,0.9-13.9,0.6-20.9c-2.3-24.7-23.4-43.6-44.5-53.9l-0.9-0.5
	c12.9-14.8,31.5-23.2,51.1-23.2c37.1,0,67.7,30.6,67.7,67.7c0,21.6-10.3,41.9-27.7,54.6c-0.2,0.8-0.4,1.6-0.6,2.3
	c-4.9,19.5-1.7,31.4,2,37.9c1,0.2,35.9,8.1,40.5,12.7s33,11.2,33,11.2C1973.9,1781.7,1980.8,1788.7,1982.9,1797.5L1982.9,1797.5z"/>
<path class="st7" d="M1794.7,1598.2c1.4-1.6,3.5-2.4,4.9-4c4.4-4.8,0-12.6,1.6-18.9c1.7-7,10.3-10,17.5-9.3c7.2,0.7,13.9,4,21,4.9
	c11.1,1.2,21.9-3.6,32.8-6.4c10.9-2.8,24-3,31.4,5.3c7.5,8.3,7,22.5,16.3,28.5c4.3,2.8,9.7,3.1,14.4,5.1c5.1,2.6,9.3,6.6,12.1,11.6
	c7.4,11.6,10.6,25.3,9.2,38.9c-0.8,7.4-2.9,14.5-3.8,21.9c-0.9,7.7-0.4,15.4,1.5,22.9c2,7.6,6.2,15.9,13.8,18.3
	c1.8,0.4,3.5,1,5.1,1.8c4.4,2.7,3.8,9.2,2.7,14.2l-4.5,20.9c4.3,3.3,11.1,1.9,15.2,5.4c1.7,1.5,2.9,3.4,3.6,5.6
	c4.2,11.9,0.5,25.3-9.1,33.4c-5.1,4-11.8,7.4-12.5,13.8c0.2,2.1-0.1,4.2-0.8,6.1c-1.6,2.8-5.6,2.5-8.8,2c-2.7-0.2-5.2-1.2-7.4-2.7
	c-3.4-2.8-3.6-7.9-6.2-11.5c-3.1-3.7-7.8-5.8-12.7-5.6c-4.8-0.2-9.5,0.9-14.3,1.1c-11,0.5-21.8-3.4-30-10.8
	c-4.7-4.3-8.5-10.2-8.2-16.5c0.2-3.9,2-7.5,2.5-11.3c1.9-11-5.4-21.3-13.3-29.2c-7.9-7.9-17.2-15.1-21-25.5
	c-4.8-12.9-0.2-27.4-1.4-41.1c-2.3-24.7-23.4-43.6-44.5-53.9C1797.3,1610.6,1789.3,1604.5,1794.7,1598.2L1794.7,1598.2z"/>
<path class="st5" d="M1960.9,1811.6c-3.4-2.9-3.6-7.9-6.2-11.5c-3.1-3.7-7.8-5.8-12.7-5.6c-4.8-0.2-9.5,0.9-14.3,1.1
	c-11.1,0.5-21.9-3.4-30.1-10.9c-4.7-4.3-8.5-10.2-8.1-16.5c0.2-3.9,2-7.5,2.5-11.3c1.9-11-5.4-21.4-13.3-29.2
	c-7.9-7.9-17.2-15.1-21-25.5c-4.8-12.9,0-27.3-1.4-41.1c-2.4-24.7-23.4-43.6-44.5-53.9c-4.9-2.4-12.9-8.5-7.5-14.8
	c1.4-1.6,3.5-2.4,4.9-4c4.4-4.8,0-12.6,1.6-18.9c0.3-1.3,0.9-2.4,1.6-3.5c-5.3,1-10.2,4-11.5,9.1c-1.5,6.3,2.8,14.1-1.6,18.9
	c-1.4,1.6-3.5,2.4-4.9,3.9c-5.5,6.2,2.5,12.4,7.5,14.8c21.1,10.3,42.2,29.2,44.5,53.9c1.3,13.7-3.4,28.2,1.4,41.1
	c3.9,10.4,13.1,17.8,21,25.5c7.9,7.8,15.2,18.2,13.3,29.2c-1.1,3.7-1.9,7.5-2.5,11.3c-0.4,6.3,3.5,12.2,8.2,16.5
	c8.2,7.4,19,11.3,30,10.9c4.8-0.2,9.5-1.3,14.3-1.1c4.9-0.2,9.6,1.9,12.7,5.6c2.5,3.6,2.8,8.7,6.2,11.5c2.2,1.5,4.8,2.5,7.4,2.7
	c3.2,0.6,7.2,0.8,8.8-2c0.6-1.1,0.8-2.4,0.7-3.7C1965.4,1814,1963,1813.1,1960.9,1811.6L1960.9,1811.6z"/>
</svg>
