<svg width="349" height="58" viewBox="0 0 349 58" fill="none" xmlns="http://www.w3.org/2000/svg">
<path d="M254.511 45.9594C258.221 49.9621 261.866 53.9322 265.608 57.9675C265.315 58 265.153 58 264.958 58C261.833 58 258.709 58 255.585 58C255.293 58 254.902 57.8373 254.674 57.6095C252.689 55.4943 250.704 53.3465 248.752 51.1987C248.459 50.8733 248.263 50.8407 247.873 51.036C242.894 53.6394 237.59 54.7783 231.96 54.3553C219.529 53.379 208.92 44.072 207 31.6409C204.69 16.7367 214.387 3.13408 229.226 0.465633C241.299 -1.68214 253.015 3.71984 258.84 14.1984C264.469 24.2539 262.907 36.9778 255 45.3737C254.869 45.5689 254.707 45.7316 254.511 45.9594ZM248.686 39.4836C248.914 39.1907 249.077 38.9629 249.24 38.7676C252.852 33.8863 253.763 28.4518 252.461 22.6268C250.216 12.4737 239.705 6.09541 229.682 8.76386C221.937 10.8466 216.209 18.0383 215.852 26.0437C215.591 31.7711 217.251 36.7826 221.384 40.8503C226.688 46.1221 234.954 47.6842 241.657 44.7228C241.885 44.6252 242.113 44.495 242.406 44.3649C239.282 41.013 236.223 37.6938 233.066 34.2768C233.489 34.2768 233.685 34.2768 233.88 34.2768C236.971 34.2768 240.03 34.2768 243.122 34.2768C243.642 34.2768 243.968 34.407 244.326 34.7975C245.758 36.3595 247.19 37.889 248.686 39.4836Z" fill="#ffffff"/>
<path d="M50.8958 34.7324C50.8958 26.0762 50.8958 17.5502 50.8958 9.02421C52.8158 9.02421 54.6707 9.02421 56.5581 9.02421C56.5581 21.9434 56.5581 34.8626 56.5581 47.8469C56.4605 47.7818 56.3629 47.7493 56.3303 47.6842C49.9846 41.5988 43.6389 35.4809 37.2932 29.3955C35.3407 27.5406 33.3882 25.6857 31.4682 23.7658C30.5244 22.822 29.7434 21.7807 28.7672 20.6743C28.7672 29.2979 28.7672 37.8239 28.7672 46.3825C26.8147 46.3825 24.9923 46.3825 23.1049 46.3825C23.1049 33.4633 23.1049 20.5441 23.1049 7.55981C23.2676 7.68998 23.4303 7.78761 23.5604 7.91778C28.7346 12.8642 33.8763 17.8431 39.0179 22.7895C42.0769 25.7508 45.1358 28.7122 48.1622 31.706C49.106 32.5847 49.9195 33.626 50.8958 34.7324Z" fill="#ffffff"/>
<path d="M290.275 8.99167C292.358 8.99167 294.376 8.99167 296.458 8.99167C296.458 9.21946 296.458 9.44726 296.458 9.64251C296.458 17.4526 296.491 25.2627 296.458 33.0728C296.458 35.2857 296.1 37.466 295.254 39.5487C293.887 43.0307 291.349 45.3086 287.802 46.415C283.441 47.7493 279.016 47.7818 274.655 46.5452C269.936 45.211 267.17 41.9568 266.194 37.2056C265.901 35.7412 265.706 34.2118 265.673 32.6823C265.608 24.9698 265.641 17.2248 265.641 9.51234C265.641 9.34963 265.641 9.18692 265.641 8.99167C267.658 8.99167 269.644 8.99167 271.726 8.99167C271.726 9.25201 271.726 9.51234 271.726 9.77268C271.726 17.0296 271.694 24.2539 271.759 31.5108C271.759 33.0403 271.987 34.6023 272.377 36.0667C273.126 38.9955 275.111 40.7527 278.039 41.4361C279.959 41.8592 281.879 41.8917 283.799 41.4686C287.379 40.7202 289.266 38.3772 289.95 34.9277C290.178 33.7887 290.21 32.6172 290.243 31.4782C290.275 24.2539 290.243 17.0296 290.243 9.80522C290.275 9.57743 290.275 9.31709 290.275 8.99167Z" fill="#ffffff"/>
<path d="M113.8 46.3825C113.507 46.3825 113.279 46.3825 113.084 46.3825C111.196 46.3825 109.341 46.3825 107.454 46.3825C106.998 46.3825 106.705 46.2523 106.445 45.8943C102.54 40.6225 98.635 35.3832 94.73 30.1114C94.6974 30.0464 94.6649 29.9813 94.6323 29.9487C94.4045 29.8511 94.2093 29.7535 93.9815 29.6884C93.9164 29.8836 93.7862 30.0464 93.7862 30.2416C93.7862 32.064 93.7862 33.9189 93.7862 35.7412C93.7862 39.028 93.7862 42.2822 93.7862 45.5689C93.7862 45.8293 93.7862 46.057 93.7862 46.3499C91.8337 46.3499 89.9788 46.3499 88.0588 46.3499C88.0588 33.9189 88.0588 21.4878 88.0588 8.99164C88.2215 8.99164 88.4168 8.95909 88.612 8.95909C91.9964 8.95909 95.3808 8.92655 98.7326 8.99164C100.555 9.02418 102.41 9.25197 104.102 10.0004C106.705 11.172 108.267 13.2872 109.048 15.9556C109.764 18.4288 109.667 20.9346 108.918 23.3752C107.844 26.7921 105.306 28.5494 101.889 29.2328C101.629 29.2979 101.336 29.3304 100.978 29.3955C105.241 35.0904 109.472 40.6876 113.8 46.3825ZM94.1767 14.296C94.1767 17.8431 94.1767 21.2925 94.1767 24.8396C96.1944 24.8722 98.212 24.9047 100.164 24.384C101.824 23.961 102.768 22.9196 102.996 21.26C103.093 20.479 103.158 19.698 103.093 18.9495C102.865 16.7041 102.084 15.4024 99.8391 14.7841C98.0167 14.2309 96.1293 14.2635 94.1767 14.296Z" fill="#ffffff"/>
<path d="M321.027 40.8829C321.027 42.7378 321.027 44.5276 321.027 46.35C314.063 46.35 307.132 46.35 300.135 46.35C300.135 33.9189 300.135 21.4553 300.135 8.99167C307.099 8.99167 314.031 8.99167 320.995 8.99167C320.995 10.6839 320.995 12.376 320.995 14.1659C320.767 14.1659 320.572 14.1659 320.344 14.1659C315.886 14.1659 311.428 14.1659 306.969 14.1659C306.351 14.1659 306.188 14.3611 306.221 14.9469C306.253 17.5502 306.221 20.1536 306.221 22.7244C306.221 22.9197 306.221 23.1475 306.221 23.4078C311.167 23.4078 316.049 23.4078 320.995 23.4078C320.995 25.2627 320.995 27.02 320.995 28.8749C320.735 28.8749 320.507 28.8749 320.279 28.8749C315.821 28.8749 311.362 28.8749 306.904 28.8749C306.351 28.8749 306.188 29.005 306.188 29.5908C306.221 33.1379 306.221 36.685 306.188 40.2321C306.188 40.7527 306.318 40.9154 306.872 40.9154C311.297 40.8829 315.723 40.9154 320.181 40.9154C320.442 40.8829 320.702 40.8829 321.027 40.8829Z" fill="#ffffff"/>
<path d="M136.351 23.4403C136.351 25.2952 136.351 27.0525 136.351 28.8749C131.47 28.8749 126.589 28.8749 121.675 28.8749C121.675 32.9101 121.675 36.8477 121.675 40.8503C126.556 40.8503 131.437 40.8503 136.351 40.8503C136.351 42.7052 136.351 44.495 136.351 46.3499C129.387 46.3499 122.423 46.3499 115.459 46.3499C115.459 33.9189 115.459 21.4878 115.459 9.0242C122.423 9.0242 129.355 9.0242 136.351 9.0242C136.351 10.7164 136.351 12.4086 136.351 14.1984C131.47 14.1984 126.589 14.1984 121.675 14.1984C121.675 17.3224 121.675 20.3488 121.675 23.4403C126.524 23.4403 131.405 23.4403 136.351 23.4403Z" fill="#ffffff"/>
<path d="M20.8595 40.8829C20.8595 42.7378 20.8595 44.5276 20.8595 46.35C13.8955 46.35 6.964 46.35 0 46.35C0 33.9189 0 21.4878 0 8.99167C6.964 8.99167 13.8955 8.99167 20.8595 8.99167C20.8595 10.7164 20.8595 12.4086 20.8595 14.1659C20.5991 14.1659 20.3388 14.1659 20.111 14.1659C15.6853 14.1659 11.227 14.1659 6.80129 14.1659C6.24808 14.1659 6.08537 14.296 6.08537 14.8492C6.11791 17.4851 6.08537 20.1211 6.08537 22.757C6.08537 22.9522 6.08537 23.1149 6.08537 23.3753C11.0318 23.3753 15.9131 23.3753 20.8269 23.3753C20.8269 25.1976 20.8269 26.9874 20.8269 28.8423C20.5991 28.8423 20.3713 28.8423 20.111 28.8423C15.6527 28.8423 11.1945 28.8423 6.73621 28.8423C6.15045 28.8423 6.02028 29.005 6.02028 29.5583C6.05282 33.1053 6.05282 36.6524 6.02028 40.1995C6.02028 40.7527 6.18299 40.8829 6.70367 40.8504C11.1294 40.8178 15.5551 40.8504 20.0134 40.8504C20.3062 40.8829 20.5666 40.8829 20.8595 40.8829Z" fill="#ffffff"/>
<path d="M171.497 18.2011C169.902 16.8017 168.275 15.7279 166.42 15.0445C161.474 13.157 156.592 13.0919 152.004 16.0207C148.815 18.0709 147.058 21.1298 146.439 24.8396C145.951 27.7684 146.049 30.6972 147.188 33.4633C149.14 38.1819 152.622 41.013 157.764 41.5663C162.613 42.0869 166.843 40.5249 170.618 37.5636C170.846 37.4009 171.041 37.2382 171.334 37.0104C171.367 37.2382 171.367 37.4009 171.367 37.5636C171.367 39.4836 171.367 41.4035 171.367 43.3235C171.367 43.7466 171.204 44.0069 170.878 44.2347C168.21 45.992 165.281 47.0008 162.092 47.2937C158.643 47.6191 155.258 47.3587 152.037 46.0896C145.365 43.4537 141.363 38.5073 140.061 31.4782C139.28 27.1827 139.703 23.0173 141.623 19.0797C144.389 13.3848 148.945 9.8052 155.161 8.53606C160.823 7.36454 166.16 8.30826 171.074 11.4648C171.594 11.7903 171.822 12.1482 171.757 12.7665C171.659 14.5238 171.594 16.2811 171.497 18.2011Z" fill="#ffffff"/>
<path d="M347.061 14.3611C345.467 15.1746 343.872 16.0207 342.277 16.8343C341.496 15.6302 340.618 14.5563 339.284 13.9706C337.396 13.157 335.476 13.1896 333.686 14.1333C331.05 15.5326 330.725 19.0797 332.938 21.2275C334.565 22.7895 336.55 23.7332 338.535 24.6769C340.846 25.7508 343.124 26.9223 345.044 28.6145C347.094 30.4043 348.102 32.6497 348.168 35.3833C348.233 38.5398 347.549 41.4035 345.336 43.7791C343.384 45.8618 340.911 46.9357 338.112 47.2611C335.606 47.554 333.101 47.4889 330.692 46.6428C327.178 45.4062 325.03 42.933 324.021 39.3859C323.924 39.0931 323.924 38.8653 324.249 38.7351C325.746 38.0517 327.276 37.3358 328.74 36.6524C329.13 37.4334 329.423 38.247 329.911 38.9629C331.116 40.7852 332.97 41.5337 335.086 41.6964C336.322 41.7941 337.559 41.729 338.763 41.2734C342.017 40.0042 343.189 35.2206 339.967 32.6172C338.34 31.3155 336.452 30.502 334.63 29.5582C332.45 28.4518 330.269 27.2803 328.349 25.6857C326.202 23.8959 325.063 21.618 324.998 18.8194C324.933 16.5414 325.388 14.3611 326.755 12.5062C328.642 9.96791 331.213 8.63369 334.337 8.24318C336.81 7.9503 339.251 8.14555 341.627 8.99165C344.132 9.90283 345.955 11.5299 346.963 14.0357C346.996 14.1333 346.996 14.2309 347.061 14.3611Z" fill="#ffffff"/>
<path d="M59.3242 14.1984C59.3242 12.4086 59.3242 10.7164 59.3242 9.0242C67.9478 9.0242 76.5714 9.0242 85.2276 9.0242C85.2276 10.7164 85.2276 12.4086 85.2276 14.1984C85.0324 14.1984 84.8046 14.1984 84.5768 14.1984C81.7782 14.1984 78.947 14.2309 76.1484 14.1984C75.5301 14.1984 75.3674 14.3611 75.3674 14.9794C75.3999 25.1651 75.3674 35.3182 75.3674 45.5039C75.3674 45.7642 75.3674 46.0571 75.3674 46.3825C73.3172 46.3825 71.2996 46.3825 69.2169 46.3825C69.2169 46.1222 69.2169 45.8293 69.2169 45.5689C69.2169 35.4158 69.2169 25.2627 69.2169 15.1096C69.2169 14.2309 69.2169 14.2309 68.3383 14.2309C65.5722 14.2309 62.8062 14.2309 60.0401 14.2309C59.8123 14.1984 59.5845 14.1984 59.3242 14.1984Z" fill="#ffffff"/>
<path d="M193.983 40.8829C193.983 42.7703 193.983 44.5276 193.983 46.3499C187.41 46.3499 180.901 46.3499 174.328 46.3499C174.328 33.9189 174.328 21.4552 174.328 8.99164C176.345 8.99164 178.363 8.99164 180.446 8.99164C180.446 9.28452 180.446 9.54485 180.446 9.80519C180.446 19.8932 180.446 29.9813 180.446 40.0693C180.446 40.6876 180.576 40.8829 181.259 40.8829C185.262 40.8503 189.232 40.8829 193.235 40.8829C193.43 40.8829 193.69 40.8829 193.983 40.8829Z" fill="#ffffff"/>
<path d="M197.172 8.99164C199.223 8.99164 201.208 8.99164 203.258 8.99164C203.258 21.4552 203.258 33.8863 203.258 46.3499C201.24 46.3499 199.223 46.3499 197.172 46.3499C197.172 33.9189 197.172 21.4878 197.172 8.99164Z" fill="#ffffff"/>
</svg>
