<svg width="567" height="152" viewBox="0 0 567 152" fill="none" xmlns="http://www.w3.org/2000/svg">
<path d="M181.781 42.49C176.521 42.8187 171.837 44.7912 167.974 48.3252C165.591 50.5442 163.454 53.0098 160.988 55.6397C160.495 53.7494 160.084 52.0235 159.591 50.2976C158.03 45.1199 154.66 42.9831 149.4 43.7228C144.551 44.3803 142.496 46.7636 142.496 52.3523C142.414 69.6113 142.414 86.8703 142.496 104.212C142.496 108.65 144.551 112.184 148.249 114.567C151.948 116.95 156.057 117.772 160.002 115.635C163.783 113.663 162.714 109.718 162.714 106.431C162.796 97.3079 162.55 88.1853 163.043 79.0627C163.618 67.8032 168.056 63.3652 179.234 61.6393C180.548 61.3927 181.863 61.3927 183.178 61.1462C186.301 60.7352 188.356 59.0915 188.849 55.8863C189.178 53.8316 189.425 51.777 189.425 49.7223C189.507 44.6268 186.877 42.1612 181.781 42.49Z" fill="#FFB320"/>
<path d="M117.923 44.7091C105.759 41.0929 93.5959 42.1613 81.8433 46.6815C77.6518 48.3252 76.83 51.9414 79.4599 55.5576C82.1721 59.1738 85.7882 60.4887 90.3906 59.7491C95.404 58.9272 100.417 58.0232 105.513 58.0232C109.951 58.0232 112.663 60.8175 113.649 65.0911C114.635 69.2004 113.567 70.762 109.293 71.0907C103.376 71.5838 97.3764 71.666 91.4591 72.4879C76.9122 74.4603 70.9126 80.5421 69.5154 93.8562C68.5292 103.965 74.2 112.677 83.8158 115.718C94.4177 119.087 103.951 117.279 112.334 109.882C113.403 108.896 114.471 107.91 115.868 106.759C116.361 107.91 116.69 108.567 117.019 109.225C119.402 114.649 122.607 116.704 127.374 115.718C131.401 114.896 133.703 111.444 133.703 105.937C133.703 92.9521 133.785 79.8846 133.703 66.8992C133.62 55.6398 128.196 47.6677 117.923 44.7091ZM98.938 102.239C94.4999 102.321 91.6234 100.595 90.555 97.2258C89.24 93.1165 90.555 88.4319 94.089 86.2129C98.3627 83.5829 103.047 82.5145 108.061 83.5829C110.608 84.1582 112.006 85.6376 112.006 88.4319C112.252 95.7464 106.17 102.157 98.938 102.239Z" fill="#FFB320"/>
<path d="M250.324 109.225C251.721 102.65 247.283 98.9516 240.626 100.349C231.75 102.239 218.765 105.28 212.354 96.4039C210.464 93.7739 210.135 89.829 212.437 87.5278C214.162 85.8019 216.382 85.391 218.601 85.3088C221.477 85.2266 224.271 85.3088 227.148 85.391C233.312 85.5554 239.558 85.7197 245.722 85.391C249.585 85.1444 254.105 84.1582 254.598 79.5558C255.42 70.1044 253.529 59.8312 247.119 52.5167C242.845 47.6677 237.01 44.8734 230.764 43.6406C225.833 42.6544 220.573 42.7365 215.724 43.6406C201.424 46.2705 191.233 55.9685 190 70.6797C189.507 77.0902 189.26 83.4185 189.671 89.829C190.411 99.8557 195.671 107.581 204.382 112.841C209.642 116.046 215.395 117.361 221.477 117.443C229.942 117.526 238.654 118.347 246.462 113.992C248.187 113.005 249.913 111.033 250.324 109.225ZM211.615 63.7761C213.752 60.2421 217.121 57.8587 221.23 57.4478C224.847 57.0369 228.956 58.0231 231.504 60.7352C233.23 62.5433 234.791 64.6802 234.462 66.7348C234.298 67.721 233.805 68.6251 232.654 69.5291C230.517 71.255 227.394 71.8303 224.682 72.0769C220.573 72.4056 207.423 70.6797 211.615 63.7761Z" fill="#FFB320"/>
<path d="M284.842 40.0245C284.842 34.4359 281.144 31.3128 275.637 32.1347C268.734 33.1209 264.131 37.3945 263.803 44.3803C263.31 53.3386 263.638 62.379 263.556 71.3373C263.474 80.2956 263.31 89.336 263.227 98.2942C263.145 105.691 263.31 113.088 262.981 120.484C262.734 128.21 258.461 132.484 250.9 133.305C249.009 133.552 247.037 133.963 245.229 134.703C241.695 136.1 239.229 140.538 239.722 144.154C240.38 148.428 242.928 151.386 247.53 151.304C253.694 151.222 259.858 150.729 265.857 149.496C270.706 148.592 274.569 145.387 277.61 141.36C282.952 134.374 284.842 126.32 284.842 117.772C284.842 105.527 284.842 93.1987 284.842 80.953C284.842 67.228 284.924 53.5852 284.842 40.0245Z" fill="#FFB320"/>
<path d="M71.6523 50.3799C71.6523 47.6677 70.666 45.2021 68.7758 43.3119C66.8855 41.3394 64.4199 40.271 61.7078 40.271C59.7353 40.271 57.9272 40.8463 56.2835 41.9147C54.6398 42.9831 53.407 44.3803 52.6673 46.024L36.148 87.9388L19.7108 46.2706L19.6286 46.1062C18.889 44.4625 17.6562 43.0653 16.0125 41.9969C14.3688 40.9285 12.5607 40.3532 10.5882 40.3532C7.79389 40.3532 5.4105 41.4216 3.52023 43.3941C1.62995 45.2843 0.643723 47.6677 0.643723 50.3799C0.643723 51.6948 0.972466 53.1742 1.62995 54.7357L24.5598 109.636C25.4638 111.69 26.9432 113.499 28.8335 114.814C30.8059 116.211 33.1071 116.95 35.4905 116.95H36.8055C39.1889 116.95 41.4901 116.211 43.4625 114.814C45.3528 113.499 46.8322 111.69 47.7362 109.554L70.666 54.7357C71.3235 53.092 71.6523 51.6948 71.6523 50.3799Z" fill="#FFB320"/>
<path opacity="0.25" d="M313.279 53.8318C313.525 53.4208 313.854 53.0921 314.1 52.6811C328.154 34.929 353.961 31.806 371.795 45.8597C389.547 59.9135 392.67 85.7198 378.616 103.554C378.288 103.965 377.877 104.458 377.548 104.869L384.369 110.293C384.698 109.882 385.109 109.389 385.438 108.978C402.45 87.4458 398.67 56.133 377.137 39.1205C355.604 22.108 324.291 25.8886 307.279 47.4213C306.95 47.75 306.704 48.1609 306.457 48.5719L313.279 53.8318Z" fill="#EDCB4D"/>
<path d="M390.369 52.4346L405.655 26.957C406.231 25.9708 406.395 24.738 406.066 23.5874C405.902 23.0121 405.655 22.519 405.245 22.0259C405.08 21.8615 404.998 21.5327 404.751 21.4506C404.505 21.2862 404.258 21.4506 404.012 21.6149C401.957 22.8477 399.82 23.9983 397.766 25.1489C396.944 25.642 395.958 26.053 395.382 26.8748C394.56 28.1076 393.985 29.4226 393.163 30.6554C392.259 32.1347 391.355 33.6141 390.451 35.0934C390.369 35.2578 390.287 35.4221 390.122 35.5865C388.807 37.7233 387.575 39.8602 386.26 41.997C384.205 45.2844 383.63 48.3253 383.547 52.1881C383.465 55.9686 383.958 59.0095 385.356 62.5435C386.588 65.7487 387.41 69.1183 387.821 72.5701C388.643 79.5559 387.575 86.7061 384.862 93.1988C384.123 94.9247 383.219 96.6506 382.232 98.2943C370.562 117.69 345.331 124.018 325.935 112.348C306.539 100.678 300.211 75.4466 311.881 56.0508C315.415 50.2156 320.347 45.2844 326.264 41.8326C329.14 40.1067 332.264 38.7918 335.551 37.8055C338.838 36.8193 342.208 36.8193 345.413 35.6687C348.619 34.5181 350.838 34.025 353.796 32.2991C355.029 31.5594 357.001 29.5048 357.988 28.4363C360.125 26.1351 361.604 22.7655 363.165 20.0534C364.069 18.574 364.973 17.0947 365.878 15.6154C366.288 14.8757 366.782 14.136 367.192 13.3963C367.603 12.7389 367.932 11.9992 368.425 11.3417C368.836 10.7664 368.918 10.0267 368.918 9.36924C368.918 8.62956 369.001 7.88989 369.001 7.15022C369.083 6.0818 369.165 5.01339 369.329 4.02716C369.412 3.53404 369.494 3.04093 369.576 2.54781C369.576 2.30126 369.658 2.0547 369.658 1.80814C369.658 1.64377 369.658 1.23284 369.74 1.06847C369.74 0.986283 369.74 0.821912 369.74 0.739726C369.658 0.493169 369.247 0.493169 369.001 0.410983C368.754 0.328797 368.425 0.246611 368.097 0.246611C367.521 0.164425 366.946 0.164425 366.371 0.328797C365.22 0.575354 364.234 1.23284 363.659 2.21907L348.372 27.6967C330.949 27.2036 313.772 35.8331 304.238 51.7771C290.102 75.2823 297.745 105.938 321.251 119.991C344.756 134.127 375.411 126.484 389.465 102.979C399.409 86.7883 398.998 67.5568 390.369 52.4346Z" fill="#FFB320"/>
<path d="M414.203 40.5997C414.203 36.2439 417.079 33.8605 421.435 34.4358C426.777 35.1755 430.393 38.5451 430.722 43.9693C431.133 50.9551 430.886 57.9409 430.969 65.0089C431.051 71.9947 431.133 79.0627 431.215 86.0485C431.297 91.8015 431.215 97.6367 431.38 103.39C431.626 109.471 434.914 112.759 440.749 113.416C442.228 113.581 443.79 113.909 445.105 114.485C447.899 115.635 449.789 119.087 449.378 121.881C448.885 125.251 446.913 127.552 443.297 127.47C438.53 127.388 433.681 126.977 428.996 126.073C425.216 125.333 422.175 122.868 419.791 119.745C415.682 114.32 414.203 107.992 414.121 101.335C414.121 91.7193 414.121 82.1857 414.121 72.57C414.203 61.8858 414.121 51.2839 414.203 40.5997Z" fill="white"/>
<path d="M494.005 64.3516C492.115 61.1464 489.156 58.4342 485.294 56.4618C481.431 54.4893 476.664 53.4209 471.158 53.4209C464.418 53.4209 457.679 54.6537 451.186 57.0371C448.474 58.0233 446.995 59.9136 446.995 62.4613C446.995 64.0229 447.652 65.5022 448.967 66.5706C450.282 67.7212 451.926 68.2965 453.734 68.2965C454.309 68.2965 454.967 68.2143 455.789 68.05L455.953 67.9678C458.501 67.2281 460.802 66.6528 462.939 66.3241C464.911 65.9953 467.295 65.831 469.925 65.831C474.281 65.831 477.486 66.5706 479.376 68.05C481.184 69.4471 481.513 71.584 482.088 73.4742C482.17 73.6386 482.17 73.8852 482.088 74.0495C481.924 74.5427 480.527 74.2961 480.034 74.2961C479.13 74.2961 478.143 74.2961 477.239 74.2961C475.349 74.2961 473.377 74.2961 471.486 74.2961C471.322 74.2961 471.158 74.2961 471.075 74.2961C462.282 74.2961 455.46 75.8576 450.775 78.8985C445.927 82.1037 443.461 86.3774 443.461 91.7195C443.461 95.0069 444.365 97.9656 446.255 100.513C448.146 103.061 450.693 105.034 453.899 106.431C457.022 107.746 460.391 108.403 464.007 108.403C467.13 108.403 470.171 108.074 473.13 107.417C476.171 106.677 479.047 105.527 481.595 104.047C481.842 103.883 482.006 103.719 482.335 103.636C482.335 103.636 482.417 103.636 482.499 103.636C482.746 103.719 482.828 104.047 482.91 104.212C483.075 104.458 483.239 104.705 483.403 104.951C484.8 106.842 487.184 107.992 489.732 107.992C491.786 107.992 493.512 107.417 494.909 106.184C496.306 104.951 497.046 103.472 497.046 101.746V74.6248C496.717 70.9265 495.813 67.4747 494.005 64.3516ZM483.075 89.0895C482.417 91.966 479.458 93.4454 476.582 92.5413C476.089 92.377 475.267 91.4729 474.774 91.2264C473.294 90.4867 470.829 91.062 469.925 92.377C469.596 92.8701 470.171 94.1029 470.171 94.6782C470.171 95.4178 470.089 96.0753 469.925 96.815C468.856 101.335 464.254 103.801 459.569 102.321C454.967 100.842 452.09 95.9932 453.159 91.5551C454.227 87.1171 458.83 84.5693 463.514 86.0487C464.336 86.2952 465.158 86.7062 465.898 87.1993C466.473 87.528 467.87 88.2677 468.445 88.3499C469.76 88.4321 471.158 88.2677 472.39 87.8568C472.883 87.6924 472.39 86.213 472.473 85.8021C473.13 82.9256 476.089 81.4463 478.965 82.3503C481.924 83.1722 483.732 86.2952 483.075 89.0895Z" fill="white"/>
<path d="M561.891 66.4061C559.096 62.2146 555.48 58.9272 550.96 56.7082C546.522 54.4891 541.673 53.4207 536.742 53.4207C530.742 53.4207 525.318 54.9823 520.469 58.0231V39.4491C520.469 37.641 519.729 35.9973 518.25 34.7645C516.771 33.5318 514.88 32.8743 512.744 32.8743C510.689 32.8743 508.963 33.5318 507.566 34.7645C506.169 35.9973 505.511 37.4767 505.511 39.2026L505.429 101.417C505.429 103.225 506.169 104.787 507.648 106.02C509.127 107.252 510.935 107.91 513.072 107.91C515.127 107.91 516.853 107.335 518.25 106.102C518.661 105.773 518.99 105.444 519.236 105.033C519.483 104.622 519.565 103.39 520.387 103.554C520.551 103.636 520.716 103.718 520.88 103.801C522.441 104.787 524.085 105.609 525.893 106.348C527.619 107.088 529.592 107.746 531.482 107.91C533.372 108.239 535.18 108.403 537.071 108.403C542.002 108.403 546.768 107.335 551.207 105.116C555.645 102.979 559.261 99.7735 561.973 95.582C564.685 91.4728 566.082 86.5416 566.082 81.0352C566 75.5287 564.685 70.5976 561.891 66.4061ZM554.165 92.5412C551.453 93.9383 547.919 92.8699 546.275 90.0756C545.947 89.5003 545.7 88.8428 545.536 88.1853C545.454 87.8566 545.454 87.5278 545.454 87.1991C545.454 86.706 545.618 86.3772 545.125 86.0485C543.728 85.0623 542.166 84.7335 540.44 84.7335C539.618 84.8157 539.207 85.2266 538.468 85.6376C537.481 86.1307 536.495 86.4594 535.427 86.6238C534.441 86.7882 533.372 86.6238 532.797 87.61C532.304 88.5141 532.222 89.6647 532.222 90.7331C532.222 91.144 532.222 91.5549 532.386 91.9659C532.55 92.3768 532.797 92.6234 533.043 93.0343C534.441 95.4177 533.783 98.3764 531.482 99.527C529.181 100.678 526.222 99.7735 524.743 97.3901C523.346 95.0067 524.003 92.0481 526.304 90.8975C526.715 90.6509 527.126 90.5687 527.537 90.4865C527.866 90.4043 528.441 90.4865 528.688 90.3222C529.756 89.5003 529.756 87.4456 529.345 86.295C529.099 85.5554 528.523 85.4732 527.948 85.0623C527.455 84.7335 526.879 84.4048 526.469 83.9938C525.482 83.172 524.66 82.1858 523.921 81.0352C520.88 75.8574 522.359 69.5291 527.29 66.8992C532.222 64.2693 538.714 66.3239 541.755 71.5016C542.659 73.0631 543.234 74.8712 543.317 76.6793C543.317 77.5012 543.317 78.4052 543.07 79.2271C542.988 79.638 542.906 80.0489 542.741 80.4599C542.659 80.7886 542.248 81.1995 542.33 81.5283C542.33 81.6105 542.413 81.6926 542.495 81.7748C543.563 82.6789 544.796 83.2542 546.193 83.4185C546.686 83.5007 546.768 83.172 547.097 82.9254C547.344 82.6789 547.673 82.5145 547.919 82.3501C550.631 80.953 554.165 82.0214 555.809 84.8157C557.699 87.61 556.877 91.0618 554.165 92.5412Z" fill="white"/>
<path d="M361.357 81.1995C360.289 81.0351 359.22 81.6926 358.81 82.6788L363.33 83.3363C363.248 82.2679 362.508 81.3639 361.357 81.1995Z" fill="white"/>
<path d="M350.427 51.3661C350.098 51.0374 348.701 50.9552 348.372 50.873V50.7086C348.947 47.8321 346.893 45.9419 344.016 45.3666C341.14 44.7913 338.51 45.7775 337.934 48.654V48.8184C337.195 48.654 336.455 48.5718 335.797 48.4074C335.551 48.3253 332.263 60.4066 331.853 61.475C331.77 61.6394 331.77 61.8037 331.77 61.9681C331.77 62.2968 332.099 62.5434 332.428 62.6256C334.976 63.2009 340.4 64.1049 340.4 64.1049C340.4 64.1049 345.249 65.0912 348.783 65.7486C348.865 65.7486 348.947 65.5843 349.029 65.5843C349.112 65.5021 349.194 65.3377 349.194 65.2555C349.358 63.1187 349.605 60.9819 349.851 58.7628C350.098 56.3795 350.344 53.9139 350.591 51.4483C350.509 51.4483 350.509 51.4483 350.427 51.3661ZM339.742 49.1471C340.4 47.6678 341.961 46.7637 343.605 47.0925C345.249 47.4212 346.399 48.8184 346.399 50.3799L339.742 49.1471Z" fill="white"/>
<path d="M336.537 80.7888C334.729 80.7888 333.168 82.1038 332.839 83.7475H340.236C339.825 82.1038 338.345 80.7888 336.537 80.7888Z" fill="white"/>
<path d="M377.794 84.8978C376.562 81.446 374.014 78.323 370.891 76.4327C370.151 76.0218 369.411 75.6108 368.672 75.2821C364.727 73.7206 360.453 73.8028 356.015 73.8849C353.796 73.8849 351.495 73.9671 349.194 73.8028C337.934 72.8987 329.634 69.6935 323.881 64.1048C322.566 62.872 322.155 62.1324 321.333 60.8174C321.004 60.3243 320.758 59.8312 320.511 59.3381C320.264 59.0093 319.689 57.6943 319.278 57.4478C318.703 57.119 318.045 58.6806 317.799 59.0093C317.634 59.3381 317.47 59.5846 317.306 59.9134C316.813 60.8174 316.648 61.064 316.155 61.968C315.58 63.0364 314.922 64.2692 314.594 65.502C313.69 67.9676 313.032 70.5153 312.703 73.1453C312.375 75.693 312.292 78.323 312.539 80.8707C312.785 83.4185 313.279 85.9663 314.1 88.3496C314.922 90.8152 315.909 93.1164 317.224 95.3354C318.538 97.5545 320.1 99.6913 321.908 101.582C323.716 103.554 325.853 105.28 328.072 106.759C328.483 107.006 328.894 107.252 329.223 107.499C345.66 117.361 367.028 112.019 376.89 95.582C378.698 92.3768 379.027 88.5962 377.794 84.8978ZM346.235 99.6091C346.153 99.6913 346.071 99.8557 345.989 99.8557C341.961 99.8557 336.619 99.8557 336.619 99.8557C336.619 99.8557 330.62 99.9378 327.743 99.9378C327.415 99.9378 327.004 99.6913 326.921 99.3625C326.839 99.1982 326.921 99.0338 326.921 98.8694C327.086 97.5545 328.154 83.9938 328.401 83.9938C329.223 83.9938 330.044 83.9938 330.866 83.9938V83.8294C330.866 80.6242 333.496 78.9805 336.702 78.9805C339.907 78.9805 342.537 80.542 342.537 83.7472V83.9116C342.948 83.9116 344.427 83.7472 344.92 83.9938C345.002 84.076 345.002 84.076 345.085 84.1582C345.331 86.7881 345.66 89.5002 345.824 92.1302C346.071 94.5136 346.235 96.897 346.482 99.1982C346.317 99.2804 346.317 99.4447 346.235 99.6091ZM365.795 89.1715C365.631 90.6509 365.549 92.1302 365.467 93.6095C365.467 93.6917 365.467 93.7739 365.384 93.8561C365.302 93.8561 365.22 94.0205 365.22 94.0205C362.754 93.6095 359.385 93.0342 359.385 93.0342C359.385 93.0342 355.686 92.4589 353.878 92.1302C353.632 92.048 353.467 91.8836 353.385 91.6371C353.385 91.5549 353.385 91.3905 353.467 91.3083C353.714 90.4865 355.769 82.1857 355.933 82.2679C356.426 82.3501 356.919 82.4323 357.412 82.5145V82.4323C357.741 80.4598 359.549 79.7201 361.522 80.0489C363.494 80.3776 364.973 81.6926 364.645 83.6651V83.7472C364.891 83.8294 365.878 83.8294 366.124 84.076C366.124 84.076 366.206 84.1582 366.206 84.2404C366.042 85.8019 365.96 87.5278 365.795 89.1715Z" fill="white"/>
<path d="M373.274 51.3661C372.945 51.1195 371.713 51.2839 371.384 51.3661V51.2839C371.302 48.654 369.165 47.4212 366.535 47.5034C363.905 47.5855 361.85 48.9827 361.933 51.5305V51.6127C361.275 51.6127 360.618 51.6948 359.96 51.6948C359.796 51.6948 359.22 62.7899 359.138 63.8583C359.138 64.0227 359.138 64.1871 359.138 64.2693C359.22 64.5158 359.549 64.7624 359.878 64.7624C362.179 64.7624 367.11 64.5158 367.11 64.5158C367.11 64.5158 371.466 64.4336 374.754 64.3515C374.836 64.3515 374.918 64.1871 374.918 64.1049C375 64.0227 375 63.8583 375 63.7762C374.754 61.8859 374.507 59.9134 374.343 58.0231C374.096 55.8863 373.767 53.7495 373.521 51.5305C373.356 51.4483 373.356 51.4483 373.274 51.3661ZM363.659 51.5305C363.905 50.1333 365.056 49.0649 366.535 48.9827C368.014 48.9005 369.247 49.8868 369.576 51.2017L363.659 51.5305Z" fill="white"/>
<path d="M375.575 31.0662C375.493 30.8196 374.836 30.5731 374.671 30.4087V30.3265C375.493 29.0937 374.918 27.8609 373.685 27.0391C372.452 26.2172 371.055 26.135 370.233 27.3678V27.45C369.905 27.2035 369.576 27.0391 369.329 26.7925C369.247 26.7103 365.384 31.6415 364.973 32.1346C364.891 32.2168 364.891 32.299 364.809 32.299C364.727 32.4633 364.809 32.6277 364.973 32.7099C366.042 33.4496 368.343 34.9289 368.343 34.9289C368.343 34.9289 370.398 36.3261 371.877 37.3123C371.877 37.3123 371.959 37.3123 372.041 37.3123C372.124 37.3123 372.124 37.2301 372.206 37.1479C372.699 36.1617 373.274 35.2577 373.767 34.2714C374.343 33.203 374.918 32.1346 375.493 31.0662C375.575 31.1484 375.575 31.1484 375.575 31.0662ZM371.22 28.1075C371.713 27.6144 372.617 27.45 373.274 27.8609C373.932 28.2719 374.178 29.0937 373.932 29.8334L371.22 28.1075Z" fill="white"/>
</svg>
