<?xml version="1.0" encoding="UTF-8"?>
<svg enable-background="new 0 0 687.4 631.2" version="1.1" viewBox="0 0 687.4 631.2" xml:space="preserve" xmlns="http://www.w3.org/2000/svg">
<style type="text/css">
	.st0{fill:#F2F2F2;}
	.st1{fill:#2F2E41;}
	.st2{fill:#FFFFFF;}
	.st3{fill:#3F3D56;}
	.st4{fill:#CCCCCC;}
	.st5{fill:#F6CC26;}
	.st6{opacity:0.2;fill:#231F20;enable-background:new    ;}
	.st7{fill:#FFB6B6;}
	.st8{fill:#FFB8B8;}
	.st9{opacity:0.2;enable-background:new    ;}
</style>
<path class="st0" d="m611.8 594.3c0.2 11.7-1.4 23.4-4.8 34.6-0.1 0.4-0.3 0.8-0.4 1.2h-70.5c1-5 2.6-9.8 4.8-14.4 5.9-12.5 15.4-23.1 24.9-33.7 13-14.6 25.7-29 27.8-48 5.2 7.9 9.3 16.4 12.3 25.3-3.6 1.3-7 3.4-9.8 6-0.8 0.7-1.6 1.8-1.2 2.8 0.4 0.9 1.4 1.1 2.4 1.3 2.3 0.4 4.5 0.9 6.8 1.3 1.8 0.4 3.6 0.7 5.4 1 1.3 7.5 2.2 15 2.3 22.6z"/>
<circle class="st1" cx="219.1" cy="359.3" r="168"/>
<path class="st0" d="m671 586.5c-11.3 6.9-18.5 17.5-24.4 29.4-5.1 1.2-9.8 3.6-13.7 7.2-0.8 0.7-1.7 1.8-1.2 2.8 0.4 0.9 1.4 1.1 2.4 1.3 2.2 0.4 4.5 0.9 6.7 1.3l-0.6 1.5h-74.7c3.4-4.6 7.1-8.9 11.2-12.8 0.9-0.9 1.8-1.7 2.7-2.6 9.5-8.6 20.5-15.5 32.3-20.4 18.8-7.8 39.3-10.4 59.3-7.7z"/>
<path class="st0" d="m578 630.1h-66.5c-0.4-5.3-0.3-10.7 0.1-16 2.9-33.3 20.3-63.7 47.5-83.2-3.4 12.3-1.7 24.5 1.9 36.8-0.5 0.2-1 0.3-1.5 0.5-3.6 1.3-7 3.4-9.8 6-0.8 0.7-1.6 1.8-1.2 2.8 0.4 0.9 1.4 1.1 2.4 1.3 2.3 0.4 4.5 0.9 6.7 1.3 1.8 0.4 3.6 0.7 5.4 1.1 0.8 0.1 1.7 0.3 2.5 0.5 0.1 0.3 0.2 0.6 0.3 0.8 4.2 11.6 8.8 23.3 11 35.2 0.5 3 0.9 6 1.1 9 0 1.3 0.1 2.6 0.1 3.9z"/>
<path class="st2" d="m349.2 451.3c-0.6 0.8-2.1 1.8-2.7 2.7l0.6-1.9-0.2-0.4-1.3-2.7-33.8-68-57.2-115.3-1.3-2.6-28.3-57.2-1.3-2.7c1 0 2 0.1 3 0.1l1.4 2.7 28.2 56.9 1.3 2.6 55.8 112.5 1.3 2.6 33.8 68 0.5 0.9 0.2 1.8z"/>
<path class="st2" d="m345.4 265.7h-252.7c0.7-0.9 1.4-1.8 2.1-2.7h248.5c0.8 0.9 1.4 1.8 2.1 2.7z"/>
<path class="st3" d="m317.4 318l-0.3 2.7h-64.7v-2.7h65z"/>
<path class="st2" d="m102.4 254.3v213.4c-0.9-1-1.8-1.9-2.7-2.9v-207.6c0.9-1 1.7-2 2.7-2.9z"/>
<rect class="st2" x="101" y="449" width="246.7" height="2.7"/>
<path class="st4" d="m347.6 451.3h0.3v-0.4c-0.1 0.2-0.2 0.3-0.3 0.4zm-2.1-186c-0.7-0.9-1.4-1.8-2.1-2.7-28.5-35.8-71-57.5-116.7-59.7-1-0.1-2-0.1-3-0.1-1.5 0-3-0.1-4.5-0.1-44.3 0-86.7 18.5-116.7 51.1-0.9 1-1.8 1.9-2.7 2.9-1.7 1.9-3.3 3.8-4.9 5.8-0.7 0.9-1.4 1.8-2.1 2.7-46.2 60.3-43.3 144.8 7 201.7 0.9 1 1.7 2 2.7 2.9 59.5 64.5 160.1 68.5 224.6 8.9 8-7.4 15.2-15.6 21.6-24.5 0.6-0.8 1.2-1.6 1.7-2.5 14.7-21.3 23.9-45.9 26.9-71.6l0.3-2.7c0.5-5.2 0.8-10.4 0.8-15.7-0.1-34.7-11.6-68.7-32.9-96.4zm29.1 115.1c-2.9 24.7-11.7 48.3-25.6 68.9-0.4 0.5-0.7 1.1-1.1 1.6-0.1 0.2-0.2 0.3-0.3 0.4s-0.2 0.3-0.3 0.4c-49.5 70.7-147 87.9-217.7 38.4-9.9-7-19.1-15.1-27.1-24.1-0.9-1-1.8-2-2.7-3.1-48.1-56.6-49.6-139.3-3.6-197.7 0.7-0.9 1.4-1.8 2.1-2.7l1.5-1.8c0.8-1 1.7-2 2.7-3.1 29.6-33.3 72.1-52.4 116.7-52.4 2 0 3.9 0 5.9 0.1 1 0 2 0.1 3 0.1 43.6 2.5 84.2 23.1 111.9 56.9 0.7 0.9 1.4 1.8 2.1 2.7 25 31.8 36.7 72.1 32.7 112.4 0 1.2-0.1 2.1-0.2 3zm-27 70.9h0.3v-0.4c-0.1 0.2-0.2 0.3-0.3 0.4z"/>
<path class="st5" d="m320.6 228.6c-24.1-16.9-57.3-11.2-74.2 12.9s-33.9 87.1-21.9 123.7c35.8-37.8 90.8-41.7 109.1-62.3 19.4-22 11-57.3-13-74.3z"/>
<circle class="st2" cx="289.2" cy="265.7" r="17.4"/>
<circle class="st5" cx="209.7" cy="372.7" r="11.4"/>
<path class="st6" d="m307.8 261.7c4.8 8.3 2 18.9-6.2 23.8s-18.9 2-23.8-6.2c7.2 6.3 18.2 5.6 24.5-1.6 4.9-5.6 5.7-13.8 1.9-20.2 1.4 1.2 2.6 2.6 3.6 4.2z"/>
<path class="st6" d="m333.5 302.9c-18.3 20.6-73.3 24.5-109.1 62.3-1.1-3.5-2-7-2.6-10.6 35.8-34.4 87.7-38.7 105.4-58.6 15.8-17.8 13.3-44.3-0.9-62.8 19.6 18.3 25.1 49.6 7.2 69.7z"/>
<polygon class="st7" points="520.9 617.2 507.9 617.2 501.7 567.2 520.9 567.2"/>
<path class="st1" d="m524.2 629.8h-41.8v-0.5c0-9 7.3-16.3 16.3-16.3l7.6-5.8 14.3 5.8h3.7l-0.1 16.8z"/>
<polygon class="st7" points="470.6 609.1 458 611.9 440.9 564.5 459.6 560.3"/>
<path class="st1" d="m476.6 620.6l-40.8 9.2-0.1-0.5c-2-8.8 3.5-17.5 12.3-19.5l6.2-7.3 15.2 2.5 3.6-0.8 3.6 16.4z"/>
<path class="st1" d="m537.3 311.4c6.1 18.3 5.4 38.2-1.5 59.6l-2.9 120.3c4.9 5.4 7.9 27.2 0.4 42.9-10 20.9-3.1 49.9-10.2 63.7h-20.6l-5.1-56.5-4.5-6.4-0.7-51c-2.7-6.5-5.9-12.9-0.3-20.4l-0.1-8.9-0.8-47.2-31 45.4c-0.9 10.3-6.1 15.6-13.1 19.1l9.6 42.4c16.8 14.4 12.7 36.6 13 57.2l5.5 24.3-25.3 2.3-11.2-33-12.5-20.1-21.8-81.2 15.2-35.4 6.2-14.4 34.8-80.7 76.9-22z"/>
<path class="st8" d="m322.4 246c3.8 3.8 10 3.8 13.9 0 0.4-0.4 0.8-0.9 1.1-1.3l33.5 9.4-5.5-17.2-31-6.3c-4.7-2.8-10.7-1.3-13.5 3.4-2.3 3.8-1.7 8.8 1.5 12z"/>
<path class="st5" d="m349.9 232.1l32.7-0.2c8.8-2.5 18.1-2.7 27.1-0.6l1.7 0.4 13.7-1.5c8.1-16.3 23.2-31 43.5-44.5 12-9.6 29.5-7.8 39.1 4.2 0.7 0.8 1.3 1.7 1.9 2.7 7.8 12.5 4.6 28.9-7.5 37.5l-61.8 36.3c-5.4 3.2-11.6 4.9-17.9 5l-0.1 0.1-35.3-13.4-18.1-2.3-24.6-7.1 5.6-16.6z"/>
<circle class="st8" cx="481.2" cy="124.8" r="30.9"/>
<path class="st1" d="m510 144.4c2.3-3.3 3.9-8.5 4.9-12.3 2.6-10.2 0.7-21-5.1-29.7-1.1-1.8-2.6-3.2-4.4-4.2-1.9-0.8-4.3-0.6-5.6 0.9 0-2.8-1.2-5.5-3.2-7.4s-4.5-3.3-7.2-4c-10.5-3.2-21.8-0.4-29.6 7.3-1.5 1.5-1-6.1-2.6-4.7s-3.7 2.2-5.9 2.1c-2.1-0.2-6 7.3-6 5.2-2.2 2.2-3.2 11.6-2.5 14.7s11 1.7 14 2.8c2 0.7 4.1 0.7 6.1 1.2 7.5 1.9 12.4 9.2 11.3 16.8 1.3-1.8 2.9-3.3 4.7-4.5 1.8-1.3 4.1-1.5 6.2-0.8 1.9 1 3.2 2.7 3.8 4.8 0.7 2 0.9 4.1 1.6 6.1 2 5.8 3.1 11.9 8.7 13.3 4.5 1 7.7-3.1 10.8-7.6z"/>
<path class="st5" d="m539.9 305.3l-3.4-6.8c-4.2-25.7-8.3-49.7-2.7-71.3 0.3-18.8-5.5-36.5-21.6-46.2l-7.3-4.4-3.7-9.4-34 0.8-0.1 12.3-12.1 19.6v0.1l0.8 105.6 3.4 10.9-5.1 12.7 2.7 8.1 67-10.7 7.8-1.3c0.9-0.3 1.8-0.7 2.6-1.1 2.8-1.6 5-4 6.2-7 0.1-0.2 0.1-0.3 0.2-0.5 0.5-1.4 0.8-2.8 0.9-4.3 0.1-2.5-0.5-4.9-1.6-7.1z"/>
<path class="st9" d="m541.4 312.4c-0.1 1.5-0.4 2.9-0.9 4.3l-6.4 7.5c-0.8 0.5-1.7 0.8-2.6 1.1l-7.8 1.3 11.3-21.2-24.8-54.2 31.2 61.2z"/>
<path class="st8" d="m568.4 375.1c-4.7-3.2-5.9-9.6-2.7-14.3 0.3-0.5 0.7-1 1.2-1.4l-16.3-32.8 18.9 2.3 12.6 30.8c3.8 4.3 3.4 10.8-0.8 14.6-3.7 3.2-9 3.5-12.9 0.8z"/>
<path class="st5" d="m502.3 262.4l12.4-1.7s1.2 18.6 7.1 21.5 3.9 3.3 4.6 6.3 3.9 7.5 8.5 9.6 26 53.9 26 53.9l17.9-4.2c-1.7-4.5-2.8-9.2-3.3-14-0.6-7.2-8.8-24.2-11.5-26.8s-1.6-7-3-13-0.4-0.4-2.8-10.4-28.5-69.7-29.6-78.9-13.9-14.6-13.9-14.6l-10 2.3-2.4 70z"/>
<path class="st4" d="m296.9 631.2h389.3c0.7 0 1.2-0.6 1.2-1.2s-0.6-1.2-1.2-1.2h-389.3c-0.7 0-1.2 0.6-1.2 1.2s0.5 1.2 1.2 1.2z"/>
</svg>
