<svg width="39" height="40" viewBox="0 0 39 40" fill="none" xmlns="http://www.w3.org/2000/svg">
<path fill-rule="evenodd" clip-rule="evenodd" d="M33.0577 0.702637H5.67585C2.54799 0.702637 0.00280762 3.24782 0.00280762 6.37568V33.7576C0.00280762 36.8854 2.54799 39.4306 5.67585 39.4306H33.0577C36.1856 39.4306 38.7308 36.8854 38.7308 33.7576V6.37568C38.7308 3.24782 36.1856 0.702637 33.0577 0.702637ZM19.4424 30.2025C13.8116 30.2025 9.23096 25.6218 9.23096 19.991C9.23096 14.3602 13.8116 9.77951 19.4424 9.77951C25.0732 9.77951 29.6539 14.3602 29.6539 19.991C29.6539 25.6218 25.0732 30.2025 19.4424 30.2025ZM30.7885 12.0487C28.9117 12.0487 27.3847 10.5217 27.3847 8.6449C27.3847 6.76807 28.9117 5.24107 30.7885 5.24107C32.6654 5.24107 34.1923 6.76807 34.1923 8.6449C34.1923 10.5217 32.6654 12.0487 30.7885 12.0487ZM30.7885 7.50983C30.1624 7.50983 29.6539 8.01833 29.6539 8.64444C29.6539 9.27054 30.1624 9.77905 30.7885 9.77905C31.4146 9.77905 31.9231 9.27054 31.9231 8.64444C31.9231 8.01833 31.4146 7.50983 30.7885 7.50983ZM11.5002 19.9912C11.5002 15.6123 15.0636 12.0489 19.4424 12.0489C23.8213 12.0489 27.3847 15.6123 27.3847 19.9912C27.3847 24.37 23.8213 27.9334 19.4424 27.9334C15.0636 27.9334 11.5002 24.37 11.5002 19.9912Z" fill="#DCDCDC"/>
</svg>
