<svg width="39" height="39" viewBox="0 0 39 39" fill="none" xmlns="http://www.w3.org/2000/svg">
<path d="M19.5 0C8.78952 0 0 8.78952 0 19.5C0 23.0349 0.953041 26.476 2.76034 29.4865L0 39L9.51345 36.2397C12.524 38.047 15.9651 39 19.5 39C30.2105 39 39 30.2105 39 19.5C39 8.78952 30.2105 0 19.5 0ZM31.6917 27.7394L30.7844 28.6466C29.5008 29.9302 26.5489 29.8284 24.652 29.4622C18.3449 28.244 10.9917 21.1166 9.57355 14.9443C8.87135 11.8867 9.25905 9.2284 10.2731 8.21407L11.1803 7.30685C11.6811 6.80637 12.4946 6.80697 12.9947 7.30685L16.6242 10.9366C16.8664 11.1788 16.9991 11.4999 16.9991 11.8435C16.9991 12.1872 16.8664 12.5086 16.6242 12.7499L15.7173 13.658C14.7175 14.6601 14.7175 16.288 15.7173 17.2877L21.7108 23.2024C22.7135 24.2051 24.3363 24.2063 25.3405 23.2024L26.2478 22.2954C26.7161 21.8244 27.5909 21.8229 28.0631 22.2954L31.6917 25.924C32.1844 26.4147 32.2031 27.2276 31.6917 27.7394Z" fill="#DCDCDC"/>
</svg>
