<svg width="39" height="39" viewBox="0 0 39 39" fill="none" xmlns="http://www.w3.org/2000/svg">
<path d="M33.2871 0H5.71289C2.56306 0 0 2.56306 0 5.71289V33.2871C0 36.4369 2.56306 39 5.71289 39H33.2871C36.4369 39 39 36.4369 39 33.2871V5.71289C39 2.56306 36.4369 0 33.2871 0ZM13.7871 30.9258H9.2168V14.9297H13.7871V30.9258ZM13.7871 12.6445H9.2168V8.07422H13.7871V12.6445ZM29.7832 30.9258H25.2129V21.7852C25.2129 20.5253 24.1875 19.5 22.9277 19.5C21.6679 19.5 20.6426 20.5253 20.6426 21.7852V30.9258H16.0723V14.9297H20.6426V15.7911C21.8399 15.4189 22.6177 14.9297 24.0703 14.9297C27.1699 14.933 29.7832 17.7135 29.7832 20.9996V30.9258Z" fill="#DCDCDC"/>
</svg>
